<svg width="180" height="180" viewBox="-1 -1 39 39" xmlns="http://www.w3.org/2000/svg" xmlns:xlink="http://www.w3.org/1999/xlink" shape-rendering="geometricPrecision" id="qr code"><rect id="qr background" fill-opacity="1" fill="rgb(255, 255, 255)" x="-1" y="-1" width="39" height="39" ry="1.3499999999999999"></rect><path fill-opacity="1" fill="rgb(0, 0, 0)" id="qr dark pixels" fill-rule="evenodd" d="M 8 0.2a 0.2,0.2 0 0 1 0.2,-0.2L 8.8 0a 0.2,0.2 0 0 1 0.2,0.2L 9 0.8a 0.2,0.2 0 0 0 0.2,0.2L 10.8 1a 0.2,0.2 0 0 1 0.2,0.2L 11 1.8a 0.2,0.2 0 0 0 0.2,0.2L 11.8 2a 0.2,0.2 0 0 0 0.2,-0.2L 12 1.2a 0.2,0.2 0 0 0 -0.2,-0.2L 11.2 1a 0.2,0.2 0 0 1 -0.2,-0.2L 11 0.2a 0.2,0.2 0 0 1 0.2,-0.2L 13.8 0a 0.2,0.2 0 0 1 0.2,0.2L 14 0.8a 0.2,0.2 0 0 1 -0.2,0.2L 13.2 1a 0.2,0.2 0 0 0 -0.2,0.2L 13 1.8a 0.2,0.2 0 0 0 0.2,0.2L 13.8 2a 0.2,0.2 0 0 1 0.2,0.2L 14 4.8a 0.2,0.2 0 0 1 -0.2,0.2L 13.2 5a 0.2,0.2 0 0 1 -0.2,-0.2L 13 3.2a 0.2,0.2 0 0 0 -0.2,-0.2L 11.2 3a 0.2,0.2 0 0 0 -0.2,0.2L 11 3.8a 0.2,0.2 0 0 0 0.2,0.2L 11.8 4a 0.2,0.2 0 0 1 0.2,0.2L 12 5.8a 0.2,0.2 0 0 1 -0.2,0.2L 11.2 6a 0.2,0.2 0 0 1 -0.2,-0.2L 11 5.2a 0.2,0.2 0 0 0 -0.2,-0.2L 9.2 5a 0.2,0.2 0 0 0 -0.2,0.2L 9 7.8a 0.2,0.2 0 0 0 0.2,0.2L 9.8 8a 0.2,0.2 0 0 0 0.2,-0.2L 10 6.2a 0.2,0.2 0 0 1 0.2,-0.2L 10.8 6a 0.2,0.2 0 0 1 0.2,0.2L 11 6.8a 0.2,0.2 0 0 0 0.2,0.2L 11.8 7a 0.2,0.2 0 0 0 0.2,-0.2L 12 6.2a 0.2,0.2 0 0 1 0.2,-0.2L 12.8 6a 0.2,0.2 0 0 1 0.2,0.2L 13 7.8a 0.2,0.2 0 0 1 -0.2,0.2L 11.2 8a 0.2,0.2 0 0 0 -0.2,0.2L 11 9.8a 0.2,0.2 0 0 0 0.2,0.2L 11.8 10a 0.2,0.2 0 0 1 0.2,0.2L 12 10.8a 0.2,0.2 0 0 1 -0.2,0.2L 10.2 11a 0.2,0.2 0 0 1 -0.2,-0.2L 10 10.2a 0.2,0.2 0 0 0 -0.2,-0.2L 8.2 10a 0.2,0.2 0 0 1 -0.2,-0.2L 8 4.2a 0.2,0.2 0 0 1 0.2,-0.2L 9.8 4a 0.2,0.2 0 0 0 0.2,-0.2L 10 2.2a 0.2,0.2 0 0 0 -0.2,-0.2L 8.2 2a 0.2,0.2 0 0 1 -0.2,-0.2z M 16 0.2a 0.2,0.2 0 0 1 0.2,-0.2L 16.8 0a 0.2,0.2 0 0 1 0.2,0.2L 17 0.8a 0.2,0.2 0 0 1 -0.2,0.2L 16.2 1a 0.2,0.2 0 0 1 -0.2,-0.2z M 18 0.2a 0.2,0.2 0 0 1 0.2,-0.2L 18.8 0a 0.2,0.2 0 0 1 0.2,0.2L 19 1.8a 0.2,0.2 0 0 0 0.2,0.2L 19.8 2a 0.2,0.2 0 0 1 0.2,0.2L 20 2.8a 0.2,0.2 0 0 1 -0.2,0.2L 19.2 3a 0.2,0.2 0 0 0 -0.2,0.2L 19 6.8a 0.2,0.2 0 0 1 -0.2,0.2L 18.2 7a 0.2,0.2 0 0 1 -0.2,-0.2L 18 5.2a 0.2,0.2 0 0 0 -0.2,-0.2L 17.2 5a 0.2,0.2 0 0 0 -0.2,0.2L 17 6.8a 0.2,0.2 0 0 1 -0.2,0.2L 16.2 7a 0.2,0.2 0 0 1 -0.2,-0.2L 16 4.2a 0.2,0.2 0 0 0 -0.2,-0.2L 15.2 4a 0.2,0.2 0 0 1 -0.2,-0.2L 15 2.2a 0.2,0.2 0 0 1 0.2,-0.2L 16.8 2a 0.2,0.2 0 0 0 0.2,-0.2L 17 1.2a 0.2,0.2 0 0 1 0.2,-0.2L 17.8 1a 0.2,0.2 0 0 0 0.2,-0.2z M 20 0.2a 0.2,0.2 0 0 1 0.2,-0.2L 20.8 0a 0.2,0.2 0 0 1 0.2,0.2L 21 0.8a 0.2,0.2 0 0 1 -0.2,0.2L 20.2 1a 0.2,0.2 0 0 1 -0.2,-0.2z M 24 0.2a 0.2,0.2 0 0 1 0.2,-0.2L 26.8 0a 0.2,0.2 0 0 1 0.2,0.2L 27 0.8a 0.2,0.2 0 0 1 -0.2,0.2L 25.2 1a 0.2,0.2 0 0 0 -0.2,0.2L 25 1.8a 0.2,0.2 0 0 1 -0.2,0.2L 24.2 2a 0.2,0.2 0 0 1 -0.2,-0.2z M 28 0.2a 0.2,0.2 0 0 1 0.2,-0.2L 28.8 0a 0.2,0.2 0 0 1 0.2,0.2L 29 3.8a 0.2,0.2 0 0 1 -0.2,0.2L 28.2 4a 0.2,0.2 0 0 1 -0.2,-0.2z M 22 1.2a 0.2,0.2 0 0 1 0.2,-0.2L 22.8 1a 0.2,0.2 0 0 1 0.2,0.2L 23 1.8a 0.2,0.2 0 0 1 -0.2,0.2L 22.2 2a 0.2,0.2 0 0 1 -0.2,-0.2z M 21 2.2a 0.2,0.2 0 0 1 0.2,-0.2L 21.8 2a 0.2,0.2 0 0 1 0.2,0.2L 22 2.8a 0.2,0.2 0 0 1 -0.2,0.2L 21.2 3a 0.2,0.2 0 0 1 -0.2,-0.2z M 23 2.2a 0.2,0.2 0 0 1 0.2,-0.2L 23.8 2a 0.2,0.2 0 0 1 0.2,0.2L 24 2.8a 0.2,0.2 0 0 1 -0.2,0.2L 23.2 3a 0.2,0.2 0 0 1 -0.2,-0.2z M 25 2.2a 0.2,0.2 0 0 1 0.2,-0.2L 26.8 2a 0.2,0.2 0 0 1 0.2,0.2L 27 3.8a 0.2,0.2 0 0 1 -0.2,0.2L 26.2 4a 0.2,0.2 0 0 1 -0.2,-0.2L 26 3.2a 0.2,0.2 0 0 0 -0.2,-0.2L 25.2 3a 0.2,0.2 0 0 1 -0.2,-0.2z M 22 3.2a 0.2,0.2 0 0 1 0.2,-0.2L 22.8 3a 0.2,0.2 0 0 1 0.2,0.2L 23 3.8a 0.2,0.2 0 0 0 0.2,0.2L 23.8 4a 0.2,0.2 0 0 1 0.2,0.2L 24 4.8a 0.2,0.2 0 0 1 -0.2,0.2L 22.2 5a 0.2,0.2 0 0 1 -0.2,-0.2z M 25 4.2a 0.2,0.2 0 0 1 0.2,-0.2L 25.8 4a 0.2,0.2 0 0 1 0.2,0.2L 26 5.8a 0.2,0.2 0 0 1 -0.2,0.2L 25.2 6a 0.2,0.2 0 0 1 -0.2,-0.2z M 20 5.2a 0.2,0.2 0 0 1 0.2,-0.2L 20.8 5a 0.2,0.2 0 0 1 0.2,0.2L 21 6.8a 0.2,0.2 0 0 1 -0.2,0.2L 20.2 7a 0.2,0.2 0 0 1 -0.2,-0.2z M 28 5.2a 0.2,0.2 0 0 1 0.2,-0.2L 28.8 5a 0.2,0.2 0 0 1 0.2,0.2L 29 7.8a 0.2,0.2 0 0 1 -0.2,0.2L 28.2 8a 0.2,0.2 0 0 1 -0.2,-0.2z M 14 6.2a 0.2,0.2 0 0 1 0.2,-0.2L 14.8 6a 0.2,0.2 0 0 1 0.2,0.2L 15 7.8a 0.2,0.2 0 0 0 0.2,0.2L 15.8 8a 0.2,0.2 0 0 1 0.2,0.2L 16 9.8a 0.2,0.2 0 0 0 0.2,0.2L 17.8 10a 0.2,0.2 0 0 1 0.2,0.2L 18 10.8a 0.2,0.2 0 0 1 -0.2,0.2L 14.2 11a 0.2,0.2 0 0 1 -0.2,-0.2L 14 10.2a 0.2,0.2 0 0 1 0.2,-0.2L 14.8 10a 0.2,0.2 0 0 0 0.2,-0.2L 15 9.2a 0.2,0.2 0 0 0 -0.2,-0.2L 14.2 9a 0.2,0.2 0 0 0 -0.2,0.2L 14 9.8a 0.2,0.2 0 0 1 -0.2,0.2L 13.2 10a 0.2,0.2 0 0 1 -0.2,-0.2L 13 8.2a 0.2,0.2 0 0 1 0.2,-0.2L 13.8 8a 0.2,0.2 0 0 0 0.2,-0.2z M 22 6.2a 0.2,0.2 0 0 1 0.2,-0.2L 22.8 6a 0.2,0.2 0 0 1 0.2,0.2L 23 7.8a 0.2,0.2 0 0 1 -0.2,0.2L 22.2 8a 0.2,0.2 0 0 1 -0.2,-0.2z M 24 6.2a 0.2,0.2 0 0 1 0.2,-0.2L 24.8 6a 0.2,0.2 0 0 1 0.2,0.2L 25 6.8a 0.2,0.2 0 0 1 -0.2,0.2L 24.2 7a 0.2,0.2 0 0 1 -0.2,-0.2z M 26 6.2a 0.2,0.2 0 0 1 0.2,-0.2L 26.8 6a 0.2,0.2 0 0 1 0.2,0.2L 27 7.8a 0.2,0.2 0 0 1 -0.2,0.2L 26.2 8a 0.2,0.2 0 0 1 -0.2,-0.2z M 0 8.2a 0.2,0.2 0 0 1 0.2,-0.2L 2.8 8a 0.2,0.2 0 0 1 0.2,0.2L 3 8.8a 0.2,0.2 0 0 1 -0.2,0.2L 1.2 9a 0.2,0.2 0 0 0 -0.2,0.2L 1 9.8a 0.2,0.2 0 0 1 -0.2,0.2L 0.2 10a 0.2,0.2 0 0 1 -0.2,-0.2z M 5 8.2a 0.2,0.2 0 0 1 0.2,-0.2L 6.8 8a 0.2,0.2 0 0 1 0.2,0.2L 7 8.8a 0.2,0.2 0 0 1 -0.2,0.2L 5.2 9a 0.2,0.2 0 0 1 -0.2,-0.2z M 19 8.2a 0.2,0.2 0 0 1 0.2,-0.2L 21.8 8a 0.2,0.2 0 0 1 0.2,0.2L 22 9.8a 0.2,0.2 0 0 1 -0.2,0.2L 20.2 10a 0.2,0.2 0 0 0 -0.2,0.2L 20 10.8a 0.2,0.2 0 0 1 -0.2,0.2L 19.2 11a 0.2,0.2 0 0 1 -0.2,-0.2z M 23 8.2a 0.2,0.2 0 0 1 0.2,-0.2L 23.8 8a 0.2,0.2 0 0 1 0.2,0.2L 24 8.8a 0.2,0.2 0 0 1 -0.2,0.2L 23.2 9a 0.2,0.2 0 0 1 -0.2,-0.2z M 27 8.2a 0.2,0.2 0 0 1 0.2,-0.2L 27.8 8a 0.2,0.2 0 0 1 0.2,0.2L 28 8.8a 0.2,0.2 0 0 0 0.2,0.2L 28.8 9a 0.2,0.2 0 0 1 0.2,0.2L 29 9.8a 0.2,0.2 0 0 1 -0.2,0.2L 28.2 10a 0.2,0.2 0 0 0 -0.2,0.2L 28 10.8a 0.2,0.2 0 0 1 -0.2,0.2L 27.2 11a 0.2,0.2 0 0 0 -0.2,0.2L 27 11.8a 0.2,0.2 0 0 1 -0.2,0.2L 26.2 12a 0.2,0.2 0 0 1 -0.2,-0.2L 26 11.2a 0.2,0.2 0 0 0 -0.2,-0.2L 25.2 11a 0.2,0.2 0 0 1 -0.2,-0.2L 25 10.2a 0.2,0.2 0 0 1 0.2,-0.2L 26.8 10a 0.2,0.2 0 0 0 0.2,-0.2z M 29 8.2a 0.2,0.2 0 0 1 0.2,-0.2L 32.8 8a 0.2,0.2 0 0 1 0.2,0.2L 33 8.8a 0.2,0.2 0 0 1 -0.2,0.2L 32.2 9a 0.2,0.2 0 0 0 -0.2,0.2L 32 9.8a 0.2,0.2 0 0 1 -0.2,0.2L 31.2 10a 0.2,0.2 0 0 1 -0.2,-0.2L 31 9.2a 0.2,0.2 0 0 0 -0.2,-0.2L 29.2 9a 0.2,0.2 0 0 1 -0.2,-0.2z M 35 8.2a 0.2,0.2 0 0 1 0.2,-0.2L 36.8 8a 0.2,0.2 0 0 1 0.2,0.2L 37 11.8a 0.2,0.2 0 0 1 -0.2,0.2L 36.2 12a 0.2,0.2 0 0 1 -0.2,-0.2L 36 11.2a 0.2,0.2 0 0 0 -0.2,-0.2L 35.2 11a 0.2,0.2 0 0 1 -0.2,-0.2L 35 10.2a 0.2,0.2 0 0 0 -0.2,-0.2L 34.2 10a 0.2,0.2 0 0 1 -0.2,-0.2L 34 9.2a 0.2,0.2 0 0 1 0.2,-0.2L 34.8 9a 0.2,0.2 0 0 0 0.2,-0.2z M 3 9.2a 0.2,0.2 0 0 1 0.2,-0.2L 4.8 9a 0.2,0.2 0 0 1 0.2,0.2L 5 9.8a 0.2,0.2 0 0 1 -0.2,0.2L 3.2 10a 0.2,0.2 0 0 1 -0.2,-0.2z M 24 9.2a 0.2,0.2 0 0 1 0.2,-0.2L 24.8 9a 0.2,0.2 0 0 1 0.2,0.2L 25 9.8a 0.2,0.2 0 0 1 -0.2,0.2L 24.2 10a 0.2,0.2 0 0 1 -0.2,-0.2z M 6 10.2a 0.2,0.2 0 0 1 0.2,-0.2L 6.8 10a 0.2,0.2 0 0 1 0.2,0.2L 7 10.8a 0.2,0.2 0 0 1 -0.2,0.2L 6.2 11a 0.2,0.2 0 0 1 -0.2,-0.2z M 23 10.2a 0.2,0.2 0 0 1 0.2,-0.2L 23.8 10a 0.2,0.2 0 0 1 0.2,0.2L 24 10.8a 0.2,0.2 0 0 1 -0.2,0.2L 23.2 11a 0.2,0.2 0 0 1 -0.2,-0.2z M 33 10.2a 0.2,0.2 0 0 1 0.2,-0.2L 33.8 10a 0.2,0.2 0 0 1 0.2,0.2L 34 11.8a 0.2,0.2 0 0 1 -0.2,0.2L 33.2 12a 0.2,0.2 0 0 0 -0.2,0.2L 33 12.8a 0.2,0.2 0 0 1 -0.2,0.2L 32.2 13a 0.2,0.2 0 0 0 -0.2,0.2L 32 13.8a 0.2,0.2 0 0 1 -0.2,0.2L 30.2 14a 0.2,0.2 0 0 0 -0.2,0.2L 30 14.8a 0.2,0.2 0 0 1 -0.2,0.2L 28.2 15a 0.2,0.2 0 0 0 -0.2,0.2L 28 15.8a 0.2,0.2 0 0 1 -0.2,0.2L 26.2 16a 0.2,0.2 0 0 1 -0.2,-0.2L 26 15.2a 0.2,0.2 0 0 0 -0.2,-0.2L 25.2 15a 0.2,0.2 0 0 0 -0.2,0.2L 25 15.8a 0.2,0.2 0 0 1 -0.2,0.2L 24.2 16a 0.2,0.2 0 0 1 -0.2,-0.2L 24 15.2a 0.2,0.2 0 0 0 -0.2,-0.2L 23.2 15a 0.2,0.2 0 0 1 -0.2,-0.2L 23 14.2a 0.2,0.2 0 0 1 0.2,-0.2L 23.8 14a 0.2,0.2 0 0 0 0.2,-0.2L 24 13.2a 0.2,0.2 0 0 1 0.2,-0.2L 27.8 13a 0.2,0.2 0 0 0 0.2,-0.2L 28 11.2a 0.2,0.2 0 0 1 0.2,-0.2L 28.8 11a 0.2,0.2 0 0 1 0.2,0.2L 29 11.8a 0.2,0.2 0 0 0 0.2,0.2L 29.8 12a 0.2,0.2 0 0 0 0.2,-0.2L 30 11.2a 0.2,0.2 0 0 1 0.2,-0.2L 32.8 11a 0.2,0.2 0 0 0 0.2,-0.2z M 0 11.2a 0.2,0.2 0 0 1 0.2,-0.2L 0.8 11a 0.2,0.2 0 0 1 0.2,0.2L 1 11.8a 0.2,0.2 0 0 1 -0.2,0.2L 0.2 12a 0.2,0.2 0 0 1 -0.2,-0.2z M 2 11.2a 0.2,0.2 0 0 1 0.2,-0.2L 5.8 11a 0.2,0.2 0 0 1 0.2,0.2L 6 11.8a 0.2,0.2 0 0 1 -0.2,0.2L 4.2 12a 0.2,0.2 0 0 0 -0.2,0.2L 4 12.8a 0.2,0.2 0 0 1 -0.2,0.2L 3.2 13a 0.2,0.2 0 0 0 -0.2,0.2L 3 14.8a 0.2,0.2 0 0 1 -0.2,0.2L 2.2 15a 0.2,0.2 0 0 0 -0.2,0.2L 2 15.8a 0.2,0.2 0 0 1 -0.2,0.2L 1.2 16a 0.2,0.2 0 0 1 -0.2,-0.2L 1 14.2a 0.2,0.2 0 0 1 0.2,-0.2L 1.8 14a 0.2,0.2 0 0 0 0.2,-0.2z M 7 11.2a 0.2,0.2 0 0 1 0.2,-0.2L 7.8 11a 0.2,0.2 0 0 1 0.2,0.2L 8 11.8a 0.2,0.2 0 0 1 -0.2,0.2L 7.2 12a 0.2,0.2 0 0 1 -0.2,-0.2z M 18 11.2a 0.2,0.2 0 0 1 0.2,-0.2L 18.8 11a 0.2,0.2 0 0 1 0.2,0.2L 19 11.8a 0.2,0.2 0 0 1 -0.2,0.2L 18.2 12a 0.2,0.2 0 0 1 -0.2,-0.2z M 6 12.2a 0.2,0.2 0 0 1 0.2,-0.2L 6.8 12a 0.2,0.2 0 0 1 0.2,0.2L 7 12.8a 0.2,0.2 0 0 1 -0.2,0.2L 6.2 13a 0.2,0.2 0 0 1 -0.2,-0.2z M 9 12.2a 0.2,0.2 0 0 1 0.2,-0.2L 13.8 12a 0.2,0.2 0 0 1 0.2,0.2L 14 12.8a 0.2,0.2 0 0 1 -0.2,0.2L 13.2 13a 0.2,0.2 0 0 0 -0.2,0.2L 13 13.8a 0.2,0.2 0 0 0 0.2,0.2L 13.8 14a 0.2,0.2 0 0 1 0.2,0.2L 14 14.8a 0.2,0.2 0 0 1 -0.2,0.2L 13.2 15a 0.2,0.2 0 0 0 -0.2,0.2L 13 15.8a 0.2,0.2 0 0 1 -0.2,0.2L 11.2 16a 0.2,0.2 0 0 1 -0.2,-0.2L 11 15.2a 0.2,0.2 0 0 1 0.2,-0.2L 11.8 15a 0.2,0.2 0 0 0 0.2,-0.2L 12 13.2a 0.2,0.2 0 0 0 -0.2,-0.2L 10.2 13a 0.2,0.2 0 0 0 -0.2,0.2L 10 13.8a 0.2,0.2 0 0 1 -0.2,0.2L 9.2 14a 0.2,0.2 0 0 0 -0.2,0.2L 9 14.8a 0.2,0.2 0 0 1 -0.2,0.2L 8.2 15a 0.2,0.2 0 0 1 -0.2,-0.2L 8 13.2a 0.2,0.2 0 0 1 0.2,-0.2L 8.8 13a 0.2,0.2 0 0 0 0.2,-0.2z M 15 12.2a 0.2,0.2 0 0 1 0.2,-0.2L 15.8 12a 0.2,0.2 0 0 1 0.2,0.2L 16 14.8a 0.2,0.2 0 0 1 -0.2,0.2L 15.2 15a 0.2,0.2 0 0 1 -0.2,-0.2z M 21 12.2a 0.2,0.2 0 0 1 0.2,-0.2L 21.8 12a 0.2,0.2 0 0 1 0.2,0.2L 22 12.8a 0.2,0.2 0 0 1 -0.2,0.2L 21.2 13a 0.2,0.2 0 0 1 -0.2,-0.2z M 34 12.2a 0.2,0.2 0 0 1 0.2,-0.2L 34.8 12a 0.2,0.2 0 0 1 0.2,0.2L 35 12.8a 0.2,0.2 0 0 1 -0.2,0.2L 34.2 13a 0.2,0.2 0 0 1 -0.2,-0.2z M 0 13.2a 0.2,0.2 0 0 1 0.2,-0.2L 0.8 13a 0.2,0.2 0 0 1 0.2,0.2L 1 13.8a 0.2,0.2 0 0 1 -0.2,0.2L 0.2 14a 0.2,0.2 0 0 1 -0.2,-0.2z M 5 13.2a 0.2,0.2 0 0 1 0.2,-0.2L 5.8 13a 0.2,0.2 0 0 1 0.2,0.2L 6 13.8a 0.2,0.2 0 0 0 0.2,0.2L 6.8 14a 0.2,0.2 0 0 1 0.2,0.2L 7 14.8a 0.2,0.2 0 0 1 -0.2,0.2L 5.2 15a 0.2,0.2 0 0 1 -0.2,-0.2z M 18 13.2a 0.2,0.2 0 0 1 0.2,-0.2L 20.8 13a 0.2,0.2 0 0 1 0.2,0.2L 21 13.8a 0.2,0.2 0 0 1 -0.2,0.2L 20.2 14a 0.2,0.2 0 0 0 -0.2,0.2L 20 14.8a 0.2,0.2 0 0 1 -0.2,0.2L 19.2 15a 0.2,0.2 0 0 1 -0.2,-0.2L 19 14.2a 0.2,0.2 0 0 0 -0.2,-0.2L 18.2 14a 0.2,0.2 0 0 1 -0.2,-0.2z M 22 13.2a 0.2,0.2 0 0 1 0.2,-0.2L 22.8 13a 0.2,0.2 0 0 1 0.2,0.2L 23 13.8a 0.2,0.2 0 0 1 -0.2,0.2L 22.2 14a 0.2,0.2 0 0 1 -0.2,-0.2z M 33 13.2a 0.2,0.2 0 0 1 0.2,-0.2L 33.8 13a 0.2,0.2 0 0 1 0.2,0.2L 34 15.8a 0.2,0.2 0 0 0 0.2,0.2L 34.8 16a 0.2,0.2 0 0 0 0.2,-0.2L 35 15.2a 0.2,0.2 0 0 1 0.2,-0.2L 35.8 15a 0.2,0.2 0 0 1 0.2,0.2L 36 16.8a 0.2,0.2 0 0 1 -0.2,0.2L 32.2 17a 0.2,0.2 0 0 0 -0.2,0.2L 32 17.8a 0.2,0.2 0 0 1 -0.2,0.2L 31.2 18a 0.2,0.2 0 0 0 -0.2,0.2L 31 20.8a 0.2,0.2 0 0 0 0.2,0.2L 31.8 21a 0.2,0.2 0 0 1 0.2,0.2L 32 22.8a 0.2,0.2 0 0 1 -0.2,0.2L 31.2 23a 0.2,0.2 0 0 1 -0.2,-0.2L 31 22.2a 0.2,0.2 0 0 0 -0.2,-0.2L 30.2 22a 0.2,0.2 0 0 1 -0.2,-0.2L 30 21.2a 0.2,0.2 0 0 0 -0.2,-0.2L 29.2 21a 0.2,0.2 0 0 0 -0.2,0.2L 29 23.8a 0.2,0.2 0 0 0 0.2,0.2L 29.8 24a 0.2,0.2 0 0 0 0.2,-0.2L 30 23.2a 0.2,0.2 0 0 1 0.2,-0.2L 30.8 23a 0.2,0.2 0 0 1 0.2,0.2L 31 24.8a 0.2,0.2 0 0 0 0.2,0.2L 31.8 25a 0.2,0.2 0 0 1 0.2,0.2L 32 25.8a 0.2,0.2 0 0 1 -0.2,0.2L 31.2 26a 0.2,0.2 0 0 0 -0.2,0.2L 31 26.8a 0.2,0.2 0 0 1 -0.2,0.2L 28.2 27a 0.2,0.2 0 0 0 -0.2,0.2L 28 27.8a 0.2,0.2 0 0 1 -0.2,0.2L 27.2 28a 0.2,0.2 0 0 0 -0.2,0.2L 27 28.8a 0.2,0.2 0 0 1 -0.2,0.2L 26.2 29a 0.2,0.2 0 0 0 -0.2,0.2L 26 29.8a 0.2,0.2 0 0 1 -0.2,0.2L 24.2 30a 0.2,0.2 0 0 1 -0.2,-0.2L 24 28.2a 0.2,0.2 0 0 1 0.2,-0.2L 25.8 28a 0.2,0.2 0 0 0 0.2,-0.2L 26 26.2a 0.2,0.2 0 0 0 -0.2,-0.2L 24.2 26a 0.2,0.2 0 0 1 -0.2,-0.2L 24 23.2a 0.2,0.2 0 0 0 -0.2,-0.2L 22.2 23a 0.2,0.2 0 0 1 -0.2,-0.2L 22 21.2a 0.2,0.2 0 0 1 0.2,-0.2L 23.8 21a 0.2,0.2 0 0 1 0.2,0.2L 24 21.8a 0.2,0.2 0 0 0 0.2,0.2L 25.8 22a 0.2,0.2 0 0 1 0.2,0.2L 26 22.8a 0.2,0.2 0 0 1 -0.2,0.2L 25.2 23a 0.2,0.2 0 0 0 -0.2,0.2L 25 24.8a 0.2,0.2 0 0 0 0.2,0.2L 25.8 25a 0.2,0.2 0 0 0 0.2,-0.2L 26 24.2a 0.2,0.2 0 0 1 0.2,-0.2L 26.8 24a 0.2,0.2 0 0 1 0.2,0.2L 27 25.8a 0.2,0.2 0 0 0 0.2,0.2L 27.8 26a 0.2,0.2 0 0 0 0.2,-0.2L 28 24.2a 0.2,0.2 0 0 0 -0.2,-0.2L 27.2 24a 0.2,0.2 0 0 1 -0.2,-0.2L 27 20.2a 0.2,0.2 0 0 1 0.2,-0.2L 28.8 20a 0.2,0.2 0 0 0 0.2,-0.2L 29 18.2a 0.2,0.2 0 0 0 -0.2,-0.2L 28.2 18a 0.2,0.2 0 0 0 -0.2,0.2L 28 18.8a 0.2,0.2 0 0 1 -0.2,0.2L 27.2 19a 0.2,0.2 0 0 0 -0.2,0.2L 27 19.8a 0.2,0.2 0 0 1 -0.2,0.2L 26.2 20a 0.2,0.2 0 0 1 -0.2,-0.2L 26 19.2a 0.2,0.2 0 0 0 -0.2,-0.2L 25.2 19a 0.2,0.2 0 0 1 -0.2,-0.2L 25 18.2a 0.2,0.2 0 0 1 0.2,-0.2L 26.8 18a 0.2,0.2 0 0 0 0.2,-0.2L 27 17.2a 0.2,0.2 0 0 1 0.2,-0.2L 28.8 17a 0.2,0.2 0 0 0 0.2,-0.2L 29 16.2a 0.2,0.2 0 0 1 0.2,-0.2L 29.8 16a 0.2,0.2 0 0 0 0.2,-0.2L 30 15.2a 0.2,0.2 0 0 1 0.2,-0.2L 30.8 15a 0.2,0.2 0 0 1 0.2,0.2L 31 15.8a 0.2,0.2 0 0 0 0.2,0.2L 31.8 16a 0.2,0.2 0 0 0 0.2,-0.2L 32 14.2a 0.2,0.2 0 0 1 0.2,-0.2L 32.8 14a 0.2,0.2 0 0 0 0.2,-0.2z M 21 14.2a 0.2,0.2 0 0 1 0.2,-0.2L 21.8 14a 0.2,0.2 0 0 1 0.2,0.2L 22 14.8a 0.2,0.2 0 0 1 -0.2,0.2L 21.2 15a 0.2,0.2 0 0 1 -0.2,-0.2z M 36 14.2a 0.2,0.2 0 0 1 0.2,-0.2L 36.8 14a 0.2,0.2 0 0 1 0.2,0.2L 37 14.8a 0.2,0.2 0 0 1 -0.2,0.2L 36.2 15a 0.2,0.2 0 0 1 -0.2,-0.2z M 3 15.2a 0.2,0.2 0 0 1 0.2,-0.2L 3.8 15a 0.2,0.2 0 0 1 0.2,0.2L 4 15.8a 0.2,0.2 0 0 1 -0.2,0.2L 3.2 16a 0.2,0.2 0 0 1 -0.2,-0.2z M 7 15.2a 0.2,0.2 0 0 1 0.2,-0.2L 7.8 15a 0.2,0.2 0 0 1 0.2,0.2L 8 15.8a 0.2,0.2 0 0 0 0.2,0.2L 8.8 16a 0.2,0.2 0 0 1 0.2,0.2L 9 17.8a 0.2,0.2 0 0 1 -0.2,0.2L 8.2 18a 0.2,0.2 0 0 0 -0.2,0.2L 8 18.8a 0.2,0.2 0 0 0 0.2,0.2L 8.8 19a 0.2,0.2 0 0 1 0.2,0.2L 9 19.8a 0.2,0.2 0 0 1 -0.2,0.2L 7.2 20a 0.2,0.2 0 0 1 -0.2,-0.2L 7 19.2a 0.2,0.2 0 0 0 -0.2,-0.2L 6.2 19a 0.2,0.2 0 0 1 -0.2,-0.2L 6 18.2a 0.2,0.2 0 0 1 0.2,-0.2L 6.8 18a 0.2,0.2 0 0 0 0.2,-0.2L 7 17.2a 0.2,0.2 0 0 0 -0.2,-0.2L 6.2 17a 0.2,0.2 0 0 0 -0.2,0.2L 6 17.8a 0.2,0.2 0 0 1 -0.2,0.2L 5.2 18a 0.2,0.2 0 0 1 -0.2,-0.2L 5 17.2a 0.2,0.2 0 0 0 -0.2,-0.2L 4.2 17a 0.2,0.2 0 0 1 -0.2,-0.2L 4 16.2a 0.2,0.2 0 0 1 0.2,-0.2L 6.8 16a 0.2,0.2 0 0 0 0.2,-0.2z M 9 15.2a 0.2,0.2 0 0 1 0.2,-0.2L 9.8 15a 0.2,0.2 0 0 1 0.2,0.2L 10 15.8a 0.2,0.2 0 0 1 -0.2,0.2L 9.2 16a 0.2,0.2 0 0 1 -0.2,-0.2z M 14 15.2a 0.2,0.2 0 0 1 0.2,-0.2L 14.8 15a 0.2,0.2 0 0 1 0.2,0.2L 15 15.8a 0.2,0.2 0 0 1 -0.2,0.2L 14.2 16a 0.2,0.2 0 0 1 -0.2,-0.2z M 10 16.2a 0.2,0.2 0 0 1 0.2,-0.2L 10.8 16a 0.2,0.2 0 0 1 0.2,0.2L 11 16.8a 0.2,0.2 0 0 1 -0.2,0.2L 10.2 17a 0.2,0.2 0 0 1 -0.2,-0.2z M 13 16.2a 0.2,0.2 0 0 1 0.2,-0.2L 13.8 16a 0.2,0.2 0 0 1 0.2,0.2L 14 17.8a 0.2,0.2 0 0 1 -0.2,0.2L 13.2 18a 0.2,0.2 0 0 1 -0.2,-0.2z M 15 16.2a 0.2,0.2 0 0 1 0.2,-0.2L 15.8 16a 0.2,0.2 0 0 1 0.2,0.2L 16 22.8a 0.2,0.2 0 0 1 -0.2,0.2L 15.2 23a 0.2,0.2 0 0 1 -0.2,-0.2z M 17 16.2a 0.2,0.2 0 0 1 0.2,-0.2L 21.8 16a 0.2,0.2 0 0 1 0.2,0.2L 22 16.8a 0.2,0.2 0 0 1 -0.2,0.2L 21.2 17a 0.2,0.2 0 0 0 -0.2,0.2L 21 17.8a 0.2,0.2 0 0 1 -0.2,0.2L 20.2 18a 0.2,0.2 0 0 0 -0.2,0.2L 20 20.8a 0.2,0.2 0 0 0 0.2,0.2L 20.8 21a 0.2,0.2 0 0 1 0.2,0.2L 21 22.8a 0.2,0.2 0 0 1 -0.2,0.2L 19.2 23a 0.2,0.2 0 0 1 -0.2,-0.2L 19 22.2a 0.2,0.2 0 0 0 -0.2,-0.2L 18.2 22a 0.2,0.2 0 0 1 -0.2,-0.2L 18 21.2a 0.2,0.2 0 0 1 0.2,-0.2L 18.8 21a 0.2,0.2 0 0 0 0.2,-0.2L 19 19.2a 0.2,0.2 0 0 0 -0.2,-0.2L 18.2 19a 0.2,0.2 0 0 1 -0.2,-0.2L 18 18.2a 0.2,0.2 0 0 1 0.2,-0.2L 18.8 18a 0.2,0.2 0 0 0 0.2,-0.2L 19 17.2a 0.2,0.2 0 0 0 -0.2,-0.2L 18.2 17a 0.2,0.2 0 0 0 -0.2,0.2L 18 17.8a 0.2,0.2 0 0 1 -0.2,0.2L 17.2 18a 0.2,0.2 0 0 1 -0.2,-0.2z M 23 16.2a 0.2,0.2 0 0 1 0.2,-0.2L 23.8 16a 0.2,0.2 0 0 1 0.2,0.2L 24 16.8a 0.2,0.2 0 0 1 -0.2,0.2L 23.2 17a 0.2,0.2 0 0 1 -0.2,-0.2z M 0 17.2a 0.2,0.2 0 0 1 0.2,-0.2L 3.8 17a 0.2,0.2 0 0 1 0.2,0.2L 4 17.8a 0.2,0.2 0 0 1 -0.2,0.2L 3.2 18a 0.2,0.2 0 0 0 -0.2,0.2L 3 18.8a 0.2,0.2 0 0 0 0.2,0.2L 3.8 19a 0.2,0.2 0 0 1 0.2,0.2L 4 19.8a 0.2,0.2 0 0 1 -0.2,0.2L 3.2 20a 0.2,0.2 0 0 0 -0.2,0.2L 3 20.8a 0.2,0.2 0 0 0 0.2,0.2L 3.8 21a 0.2,0.2 0 0 1 0.2,0.2L 4 21.8a 0.2,0.2 0 0 1 -0.2,0.2L 3.2 22a 0.2,0.2 0 0 0 -0.2,0.2L 3 22.8a 0.2,0.2 0 0 1 -0.2,0.2L 2.2 23a 0.2,0.2 0 0 1 -0.2,-0.2L 2 19.2a 0.2,0.2 0 0 0 -0.2,-0.2L 1.2 19a 0.2,0.2 0 0 1 -0.2,-0.2L 1 18.2a 0.2,0.2 0 0 0 -0.2,-0.2L 0.2 18a 0.2,0.2 0 0 1 -0.2,-0.2z M 24 17.2a 0.2,0.2 0 0 1 0.2,-0.2L 24.8 17a 0.2,0.2 0 0 1 0.2,0.2L 25 17.8a 0.2,0.2 0 0 1 -0.2,0.2L 24.2 18a 0.2,0.2 0 0 1 -0.2,-0.2z M 9 18.2a 0.2,0.2 0 0 1 0.2,-0.2L 9.8 18a 0.2,0.2 0 0 1 0.2,0.2L 10 18.8a 0.2,0.2 0 0 1 -0.2,0.2L 9.2 19a 0.2,0.2 0 0 1 -0.2,-0.2z M 11 18.2a 0.2,0.2 0 0 1 0.2,-0.2L 11.8 18a 0.2,0.2 0 0 1 0.2,0.2L 12 18.8a 0.2,0.2 0 0 1 -0.2,0.2L 11.2 19a 0.2,0.2 0 0 1 -0.2,-0.2z M 21 18.2a 0.2,0.2 0 0 1 0.2,-0.2L 21.8 18a 0.2,0.2 0 0 1 0.2,0.2L 22 18.8a 0.2,0.2 0 0 1 -0.2,0.2L 21.2 19a 0.2,0.2 0 0 1 -0.2,-0.2z M 23 18.2a 0.2,0.2 0 0 1 0.2,-0.2L 23.8 18a 0.2,0.2 0 0 1 0.2,0.2L 24 19.8a 0.2,0.2 0 0 1 -0.2,0.2L 22.2 20a 0.2,0.2 0 0 1 -0.2,-0.2L 22 19.2a 0.2,0.2 0 0 1 0.2,-0.2L 22.8 19a 0.2,0.2 0 0 0 0.2,-0.2z M 36 18.2a 0.2,0.2 0 0 1 0.2,-0.2L 36.8 18a 0.2,0.2 0 0 1 0.2,0.2L 37 20.8a 0.2,0.2 0 0 1 -0.2,0.2L 36.2 21a 0.2,0.2 0 0 1 -0.2,-0.2L 36 20.2a 0.2,0.2 0 0 0 -0.2,-0.2L 35.2 20a 0.2,0.2 0 0 1 -0.2,-0.2L 35 19.2a 0.2,0.2 0 0 1 0.2,-0.2L 35.8 19a 0.2,0.2 0 0 0 0.2,-0.2z M 10 19.2a 0.2,0.2 0 0 1 0.2,-0.2L 10.8 19a 0.2,0.2 0 0 1 0.2,0.2L 11 19.8a 0.2,0.2 0 0 1 -0.2,0.2L 10.2 20a 0.2,0.2 0 0 1 -0.2,-0.2z M 33 19.2a 0.2,0.2 0 0 1 0.2,-0.2L 33.8 19a 0.2,0.2 0 0 1 0.2,0.2L 34 19.8a 0.2,0.2 0 0 0 0.2,0.2L 34.8 20a 0.2,0.2 0 0 1 0.2,0.2L 35 20.8a 0.2,0.2 0 0 1 -0.2,0.2L 32.2 21a 0.2,0.2 0 0 1 -0.2,-0.2L 32 20.2a 0.2,0.2 0 0 1 0.2,-0.2L 32.8 20a 0.2,0.2 0 0 0 0.2,-0.2z M 0 20.2a 0.2,0.2 0 0 1 0.2,-0.2L 0.8 20a 0.2,0.2 0 0 1 0.2,0.2L 1 21.8a 0.2,0.2 0 0 1 -0.2,0.2L 0.2 22a 0.2,0.2 0 0 1 -0.2,-0.2z M 4 20.2a 0.2,0.2 0 0 1 0.2,-0.2L 6.8 20a 0.2,0.2 0 0 1 0.2,0.2L 7 20.8a 0.2,0.2 0 0 1 -0.2,0.2L 4.2 21a 0.2,0.2 0 0 1 -0.2,-0.2z M 11 20.2a 0.2,0.2 0 0 1 0.2,-0.2L 13.8 20a 0.2,0.2 0 0 1 0.2,0.2L 14 20.8a 0.2,0.2 0 0 1 -0.2,0.2L 13.2 21a 0.2,0.2 0 0 0 -0.2,0.2L 13 21.8a 0.2,0.2 0 0 0 0.2,0.2L 13.8 22a 0.2,0.2 0 0 1 0.2,0.2L 14 22.8a 0.2,0.2 0 0 1 -0.2,0.2L 13.2 23a 0.2,0.2 0 0 0 -0.2,0.2L 13 24.8a 0.2,0.2 0 0 1 -0.2,0.2L 12.2 25a 0.2,0.2 0 0 1 -0.2,-0.2L 12 24.2a 0.2,0.2 0 0 0 -0.2,-0.2L 11.2 24a 0.2,0.2 0 0 1 -0.2,-0.2L 11 23.2a 0.2,0.2 0 0 1 0.2,-0.2L 11.8 23a 0.2,0.2 0 0 0 0.2,-0.2L 12 21.2a 0.2,0.2 0 0 0 -0.2,-0.2L 11.2 21a 0.2,0.2 0 0 1 -0.2,-0.2z M 17 20.2a 0.2,0.2 0 0 1 0.2,-0.2L 17.8 20a 0.2,0.2 0 0 1 0.2,0.2L 18 20.8a 0.2,0.2 0 0 1 -0.2,0.2L 17.2 21a 0.2,0.2 0 0 1 -0.2,-0.2z M 21 20.2a 0.2,0.2 0 0 1 0.2,-0.2L 21.8 20a 0.2,0.2 0 0 1 0.2,0.2L 22 20.8a 0.2,0.2 0 0 1 -0.2,0.2L 21.2 21a 0.2,0.2 0 0 1 -0.2,-0.2z M 8 21.2a 0.2,0.2 0 0 1 0.2,-0.2L 8.8 21a 0.2,0.2 0 0 1 0.2,0.2L 9 21.8a 0.2,0.2 0 0 1 -0.2,0.2L 8.2 22a 0.2,0.2 0 0 1 -0.2,-0.2z M 10 21.2a 0.2,0.2 0 0 1 0.2,-0.2L 10.8 21a 0.2,0.2 0 0 1 0.2,0.2L 11 21.8a 0.2,0.2 0 0 1 -0.2,0.2L 10.2 22a 0.2,0.2 0 0 1 -0.2,-0.2z M 4 22.2a 0.2,0.2 0 0 1 0.2,-0.2L 7.8 22a 0.2,0.2 0 0 1 0.2,0.2L 8 22.8a 0.2,0.2 0 0 0 0.2,0.2L 8.8 23a 0.2,0.2 0 0 1 0.2,0.2L 9 23.8a 0.2,0.2 0 0 1 -0.2,0.2L 7.2 24a 0.2,0.2 0 0 1 -0.2,-0.2L 7 23.2a 0.2,0.2 0 0 0 -0.2,-0.2L 5.2 23a 0.2,0.2 0 0 0 -0.2,0.2L 5 24.8a 0.2,0.2 0 0 0 0.2,0.2L 5.8 25a 0.2,0.2 0 0 1 0.2,0.2L 6 25.8a 0.2,0.2 0 0 0 0.2,0.2L 6.8 26a 0.2,0.2 0 0 1 0.2,0.2L 7 26.8a 0.2,0.2 0 0 1 -0.2,0.2L 5.2 27a 0.2,0.2 0 0 1 -0.2,-0.2L 5 26.2a 0.2,0.2 0 0 0 -0.2,-0.2L 3.2 26a 0.2,0.2 0 0 0 -0.2,0.2L 3 26.8a 0.2,0.2 0 0 1 -0.2,0.2L 0.2 27a 0.2,0.2 0 0 1 -0.2,-0.2L 0 26.2a 0.2,0.2 0 0 1 0.2,-0.2L 0.8 26a 0.2,0.2 0 0 0 0.2,-0.2L 1 25.2a 0.2,0.2 0 0 0 -0.2,-0.2L 0.2 25a 0.2,0.2 0 0 1 -0.2,-0.2L 0 24.2a 0.2,0.2 0 0 1 0.2,-0.2L 0.8 24a 0.2,0.2 0 0 0 0.2,-0.2L 1 23.2a 0.2,0.2 0 0 1 0.2,-0.2L 1.8 23a 0.2,0.2 0 0 1 0.2,0.2L 2 23.8a 0.2,0.2 0 0 0 0.2,0.2L 2.8 24a 0.2,0.2 0 0 1 0.2,0.2L 3 24.8a 0.2,0.2 0 0 0 0.2,0.2L 3.8 25a 0.2,0.2 0 0 0 0.2,-0.2L 4 24.2a 0.2,0.2 0 0 0 -0.2,-0.2L 3.2 24a 0.2,0.2 0 0 1 -0.2,-0.2L 3 23.2a 0.2,0.2 0 0 1 0.2,-0.2L 3.8 23a 0.2,0.2 0 0 0 0.2,-0.2z M 17 22.2a 0.2,0.2 0 0 1 0.2,-0.2L 17.8 22a 0.2,0.2 0 0 1 0.2,0.2L 18 22.8a 0.2,0.2 0 0 1 -0.2,0.2L 17.2 23a 0.2,0.2 0 0 1 -0.2,-0.2z M 34 22.2a 0.2,0.2 0 0 1 0.2,-0.2L 34.8 22a 0.2,0.2 0 0 1 0.2,0.2L 35 22.8a 0.2,0.2 0 0 1 -0.2,0.2L 34.2 23a 0.2,0.2 0 0 1 -0.2,-0.2z M 36 22.2a 0.2,0.2 0 0 1 0.2,-0.2L 36.8 22a 0.2,0.2 0 0 1 0.2,0.2L 37 22.8a 0.2,0.2 0 0 1 -0.2,0.2L 36.2 23a 0.2,0.2 0 0 1 -0.2,-0.2z M 33 23.2a 0.2,0.2 0 0 1 0.2,-0.2L 33.8 23a 0.2,0.2 0 0 1 0.2,0.2L 34 23.8a 0.2,0.2 0 0 1 -0.2,0.2L 33.2 24a 0.2,0.2 0 0 1 -0.2,-0.2z M 35 23.2a 0.2,0.2 0 0 1 0.2,-0.2L 35.8 23a 0.2,0.2 0 0 1 0.2,0.2L 36 23.8a 0.2,0.2 0 0 1 -0.2,0.2L 35.2 24a 0.2,0.2 0 0 1 -0.2,-0.2z M 6 24.2a 0.2,0.2 0 0 1 0.2,-0.2L 6.8 24a 0.2,0.2 0 0 1 0.2,0.2L 7 24.8a 0.2,0.2 0 0 1 -0.2,0.2L 6.2 25a 0.2,0.2 0 0 1 -0.2,-0.2z M 9 24.2a 0.2,0.2 0 0 1 0.2,-0.2L 10.8 24a 0.2,0.2 0 0 1 0.2,0.2L 11 25.8a 0.2,0.2 0 0 1 -0.2,0.2L 10.2 26a 0.2,0.2 0 0 0 -0.2,0.2L 10 26.8a 0.2,0.2 0 0 1 -0.2,0.2L 8.2 27a 0.2,0.2 0 0 1 -0.2,-0.2L 8 26.2a 0.2,0.2 0 0 0 -0.2,-0.2L 7.2 26a 0.2,0.2 0 0 1 -0.2,-0.2L 7 25.2a 0.2,0.2 0 0 1 0.2,-0.2L 8.8 25a 0.2,0.2 0 0 0 0.2,-0.2z M 14 24.2a 0.2,0.2 0 0 1 0.2,-0.2L 14.8 24a 0.2,0.2 0 0 1 0.2,0.2L 15 24.8a 0.2,0.2 0 0 0 0.2,0.2L 15.8 25a 0.2,0.2 0 0 1 0.2,0.2L 16 26.8a 0.2,0.2 0 0 0 0.2,0.2L 16.8 27a 0.2,0.2 0 0 1 0.2,0.2L 17 27.8a 0.2,0.2 0 0 1 -0.2,0.2L 16.2 28a 0.2,0.2 0 0 0 -0.2,0.2L 16 30.8a 0.2,0.2 0 0 1 -0.2,0.2L 15.2 31a 0.2,0.2 0 0 1 -0.2,-0.2L 15 30.2a 0.2,0.2 0 0 0 -0.2,-0.2L 14.2 30a 0.2,0.2 0 0 1 -0.2,-0.2L 14 29.2a 0.2,0.2 0 0 1 0.2,-0.2L 14.8 29a 0.2,0.2 0 0 0 0.2,-0.2L 15 27.2a 0.2,0.2 0 0 0 -0.2,-0.2L 14.2 27a 0.2,0.2 0 0 1 -0.2,-0.2L 14 26.2a 0.2,0.2 0 0 0 -0.2,-0.2L 13.2 26a 0.2,0.2 0 0 1 -0.2,-0.2L 13 25.2a 0.2,0.2 0 0 1 0.2,-0.2L 13.8 25a 0.2,0.2 0 0 0 0.2,-0.2z M 17 24.2a 0.2,0.2 0 0 1 0.2,-0.2L 17.8 24a 0.2,0.2 0 0 1 0.2,0.2L 18 24.8a 0.2,0.2 0 0 1 -0.2,0.2L 17.2 25a 0.2,0.2 0 0 1 -0.2,-0.2z M 19 24.2a 0.2,0.2 0 0 1 0.2,-0.2L 21.8 24a 0.2,0.2 0 0 1 0.2,0.2L 22 25.8a 0.2,0.2 0 0 1 -0.2,0.2L 20.2 26a 0.2,0.2 0 0 1 -0.2,-0.2L 20 25.2a 0.2,0.2 0 0 0 -0.2,-0.2L 19.2 25a 0.2,0.2 0 0 1 -0.2,-0.2z M 32 24.2a 0.2,0.2 0 0 1 0.2,-0.2L 32.8 24a 0.2,0.2 0 0 1 0.2,0.2L 33 24.8a 0.2,0.2 0 0 1 -0.2,0.2L 32.2 25a 0.2,0.2 0 0 1 -0.2,-0.2z M 34 24.2a 0.2,0.2 0 0 1 0.2,-0.2L 34.8 24a 0.2,0.2 0 0 1 0.2,0.2L 35 24.8a 0.2,0.2 0 0 1 -0.2,0.2L 34.2 25a 0.2,0.2 0 0 1 -0.2,-0.2z M 36 24.2a 0.2,0.2 0 0 1 0.2,-0.2L 36.8 24a 0.2,0.2 0 0 1 0.2,0.2L 37 24.8a 0.2,0.2 0 0 1 -0.2,0.2L 36.2 25a 0.2,0.2 0 0 1 -0.2,-0.2z M 11 26.2a 0.2,0.2 0 0 1 0.2,-0.2L 12.8 26a 0.2,0.2 0 0 1 0.2,0.2L 13 27.8a 0.2,0.2 0 0 0 0.2,0.2L 13.8 28a 0.2,0.2 0 0 1 0.2,0.2L 14 28.8a 0.2,0.2 0 0 1 -0.2,0.2L 13.2 29a 0.2,0.2 0 0 0 -0.2,0.2L 13 30.8a 0.2,0.2 0 0 1 -0.2,0.2L 12.2 31a 0.2,0.2 0 0 0 -0.2,0.2L 12 32.8a 0.2,0.2 0 0 1 -0.2,0.2L 11.2 33a 0.2,0.2 0 0 0 -0.2,0.2L 11 33.8a 0.2,0.2 0 0 1 -0.2,0.2L 9.2 34a 0.2,0.2 0 0 1 -0.2,-0.2L 9 32.2a 0.2,0.2 0 0 0 -0.2,-0.2L 8.2 32a 0.2,0.2 0 0 1 -0.2,-0.2L 8 31.2a 0.2,0.2 0 0 1 0.2,-0.2L 9.8 31a 0.2,0.2 0 0 1 0.2,0.2L 10 31.8a 0.2,0.2 0 0 0 0.2,0.2L 10.8 32a 0.2,0.2 0 0 0 0.2,-0.2L 11 30.2a 0.2,0.2 0 0 1 0.2,-0.2L 11.8 30a 0.2,0.2 0 0 0 0.2,-0.2L 12 29.2a 0.2,0.2 0 0 0 -0.2,-0.2L 11.2 29a 0.2,0.2 0 0 0 -0.2,0.2L 11 29.8a 0.2,0.2 0 0 1 -0.2,0.2L 10.2 30a 0.2,0.2 0 0 1 -0.2,-0.2L 10 29.2a 0.2,0.2 0 0 0 -0.2,-0.2L 9.2 29a 0.2,0.2 0 0 1 -0.2,-0.2L 9 28.2a 0.2,0.2 0 0 1 0.2,-0.2L 9.8 28a 0.2,0.2 0 0 0 0.2,-0.2L 10 27.2a 0.2,0.2 0 0 1 0.2,-0.2L 10.8 27a 0.2,0.2 0 0 1 0.2,0.2L 11 27.8a 0.2,0.2 0 0 0 0.2,0.2L 11.8 28a 0.2,0.2 0 0 0 0.2,-0.2L 12 27.2a 0.2,0.2 0 0 0 -0.2,-0.2L 11.2 27a 0.2,0.2 0 0 1 -0.2,-0.2z M 17 26.2a 0.2,0.2 0 0 1 0.2,-0.2L 17.8 26a 0.2,0.2 0 0 1 0.2,0.2L 18 26.8a 0.2,0.2 0 0 1 -0.2,0.2L 17.2 27a 0.2,0.2 0 0 1 -0.2,-0.2z M 19 26.2a 0.2,0.2 0 0 1 0.2,-0.2L 19.8 26a 0.2,0.2 0 0 1 0.2,0.2L 20 26.8a 0.2,0.2 0 0 1 -0.2,0.2L 19.2 27a 0.2,0.2 0 0 1 -0.2,-0.2z M 23 26.2a 0.2,0.2 0 0 1 0.2,-0.2L 23.8 26a 0.2,0.2 0 0 1 0.2,0.2L 24 26.8a 0.2,0.2 0 0 1 -0.2,0.2L 23.2 27a 0.2,0.2 0 0 1 -0.2,-0.2z M 32 26.2a 0.2,0.2 0 0 1 0.2,-0.2L 33.8 26a 0.2,0.2 0 0 1 0.2,0.2L 34 27.8a 0.2,0.2 0 0 0 0.2,0.2L 35.8 28a 0.2,0.2 0 0 0 0.2,-0.2L 36 26.2a 0.2,0.2 0 0 1 0.2,-0.2L 36.8 26a 0.2,0.2 0 0 1 0.2,0.2L 37 28.8a 0.2,0.2 0 0 1 -0.2,0.2L 34.2 29a 0.2,0.2 0 0 0 -0.2,0.2L 34 29.8a 0.2,0.2 0 0 0 0.2,0.2L 34.8 30a 0.2,0.2 0 0 1 0.2,0.2L 35 30.8a 0.2,0.2 0 0 1 -0.2,0.2L 33.2 31a 0.2,0.2 0 0 0 -0.2,0.2L 33 31.8a 0.2,0.2 0 0 0 0.2,0.2L 35.8 32a 0.2,0.2 0 0 0 0.2,-0.2L 36 30.2a 0.2,0.2 0 0 1 0.2,-0.2L 36.8 30a 0.2,0.2 0 0 1 0.2,0.2L 37 34.8a 0.2,0.2 0 0 1 -0.2,0.2L 36.2 35a 0.2,0.2 0 0 1 -0.2,-0.2L 36 33.2a 0.2,0.2 0 0 0 -0.2,-0.2L 35.2 33a 0.2,0.2 0 0 0 -0.2,0.2L 35 33.8a 0.2,0.2 0 0 1 -0.2,0.2L 34.2 34a 0.2,0.2 0 0 1 -0.2,-0.2L 34 33.2a 0.2,0.2 0 0 0 -0.2,-0.2L 29.2 33a 0.2,0.2 0 0 0 -0.2,0.2L 29 33.8a 0.2,0.2 0 0 1 -0.2,0.2L 28.2 34a 0.2,0.2 0 0 1 -0.2,-0.2L 28 33.2a 0.2,0.2 0 0 0 -0.2,-0.2L 27.2 33a 0.2,0.2 0 0 1 -0.2,-0.2L 27 32.2a 0.2,0.2 0 0 1 0.2,-0.2L 27.8 32a 0.2,0.2 0 0 0 0.2,-0.2L 28 30.2a 0.2,0.2 0 0 0 -0.2,-0.2L 27.2 30a 0.2,0.2 0 0 1 -0.2,-0.2L 27 29.2a 0.2,0.2 0 0 1 0.2,-0.2L 27.8 29a 0.2,0.2 0 0 0 0.2,-0.2L 28 28.2a 0.2,0.2 0 0 1 0.2,-0.2L 30.8 28a 0.2,0.2 0 0 0 0.2,-0.2L 31 27.2a 0.2,0.2 0 0 1 0.2,-0.2L 31.8 27a 0.2,0.2 0 0 1 0.2,0.2L 32 27.8a 0.2,0.2 0 0 0 0.2,0.2L 32.8 28a 0.2,0.2 0 0 0 0.2,-0.2L 33 27.2a 0.2,0.2 0 0 0 -0.2,-0.2L 32.2 27a 0.2,0.2 0 0 1 -0.2,-0.2zM 29 29.2a 0.2,0.2 0 0 1 0.2,-0.2L 31.8 29a 0.2,0.2 0 0 1 0.2,0.2L 32 31.8a 0.2,0.2 0 0 1 -0.2,0.2L 29.2 32a 0.2,0.2 0 0 1 -0.2,-0.2z M 7 27.2a 0.2,0.2 0 0 1 0.2,-0.2L 7.8 27a 0.2,0.2 0 0 1 0.2,0.2L 8 28.8a 0.2,0.2 0 0 1 -0.2,0.2L 6.2 29a 0.2,0.2 0 0 1 -0.2,-0.2L 6 28.2a 0.2,0.2 0 0 1 0.2,-0.2L 6.8 28a 0.2,0.2 0 0 0 0.2,-0.2z M 18 27.2a 0.2,0.2 0 0 1 0.2,-0.2L 18.8 27a 0.2,0.2 0 0 1 0.2,0.2L 19 27.8a 0.2,0.2 0 0 1 -0.2,0.2L 18.2 28a 0.2,0.2 0 0 1 -0.2,-0.2z M 20 27.2a 0.2,0.2 0 0 1 0.2,-0.2L 20.8 27a 0.2,0.2 0 0 1 0.2,0.2L 21 27.8a 0.2,0.2 0 0 0 0.2,0.2L 21.8 28a 0.2,0.2 0 0 1 0.2,0.2L 22 28.8a 0.2,0.2 0 0 1 -0.2,0.2L 21.2 29a 0.2,0.2 0 0 0 -0.2,0.2L 21 29.8a 0.2,0.2 0 0 1 -0.2,0.2L 20.2 30a 0.2,0.2 0 0 0 -0.2,0.2L 20 30.8a 0.2,0.2 0 0 1 -0.2,0.2L 19.2 31a 0.2,0.2 0 0 1 -0.2,-0.2L 19 28.2a 0.2,0.2 0 0 1 0.2,-0.2L 19.8 28a 0.2,0.2 0 0 0 0.2,-0.2z M 0 28.2a 0.2,0.2 0 0 1 0.2,-0.2L 1.8 28a 0.2,0.2 0 0 1 0.2,0.2L 2 28.8a 0.2,0.2 0 0 1 -0.2,0.2L 0.2 29a 0.2,0.2 0 0 1 -0.2,-0.2z M 3 28.2a 0.2,0.2 0 0 1 0.2,-0.2L 3.8 28a 0.2,0.2 0 0 1 0.2,0.2L 4 28.8a 0.2,0.2 0 0 1 -0.2,0.2L 3.2 29a 0.2,0.2 0 0 1 -0.2,-0.2z M 17 28.2a 0.2,0.2 0 0 1 0.2,-0.2L 17.8 28a 0.2,0.2 0 0 1 0.2,0.2L 18 30.8a 0.2,0.2 0 0 1 -0.2,0.2L 17.2 31a 0.2,0.2 0 0 1 -0.2,-0.2z M 8 29.2a 0.2,0.2 0 0 1 0.2,-0.2L 8.8 29a 0.2,0.2 0 0 1 0.2,0.2L 9 29.8a 0.2,0.2 0 0 1 -0.2,0.2L 8.2 30a 0.2,0.2 0 0 1 -0.2,-0.2z M 21 30.2a 0.2,0.2 0 0 1 0.2,-0.2L 21.8 30a 0.2,0.2 0 0 1 0.2,0.2L 22 30.8a 0.2,0.2 0 0 1 -0.2,0.2L 21.2 31a 0.2,0.2 0 0 1 -0.2,-0.2z M 23 30.2a 0.2,0.2 0 0 1 0.2,-0.2L 23.8 30a 0.2,0.2 0 0 1 0.2,0.2L 24 30.8a 0.2,0.2 0 0 1 -0.2,0.2L 23.2 31a 0.2,0.2 0 0 1 -0.2,-0.2z M 26 30.2a 0.2,0.2 0 0 1 0.2,-0.2L 26.8 30a 0.2,0.2 0 0 1 0.2,0.2L 27 30.8a 0.2,0.2 0 0 1 -0.2,0.2L 26.2 31a 0.2,0.2 0 0 1 -0.2,-0.2z M 30 30.2a 0.2,0.2 0 0 1 0.2,-0.2L 30.8 30a 0.2,0.2 0 0 1 0.2,0.2L 31 30.8a 0.2,0.2 0 0 1 -0.2,0.2L 30.2 31a 0.2,0.2 0 0 1 -0.2,-0.2z M 20 31.2a 0.2,0.2 0 0 1 0.2,-0.2L 20.8 31a 0.2,0.2 0 0 1 0.2,0.2L 21 31.8a 0.2,0.2 0 0 0 0.2,0.2L 21.8 32a 0.2,0.2 0 0 1 0.2,0.2L 22 32.8a 0.2,0.2 0 0 1 -0.2,0.2L 21.2 33a 0.2,0.2 0 0 0 -0.2,0.2L 21 33.8a 0.2,0.2 0 0 0 0.2,0.2L 21.8 34a 0.2,0.2 0 0 1 0.2,0.2L 22 34.8a 0.2,0.2 0 0 1 -0.2,0.2L 20.2 35a 0.2,0.2 0 0 0 -0.2,0.2L 20 35.8a 0.2,0.2 0 0 1 -0.2,0.2L 19.2 36a 0.2,0.2 0 0 1 -0.2,-0.2L 19 35.2a 0.2,0.2 0 0 0 -0.2,-0.2L 18.2 35a 0.2,0.2 0 0 1 -0.2,-0.2L 18 34.2a 0.2,0.2 0 0 0 -0.2,-0.2L 17.2 34a 0.2,0.2 0 0 1 -0.2,-0.2L 17 33.2a 0.2,0.2 0 0 1 0.2,-0.2L 17.8 33a 0.2,0.2 0 0 0 0.2,-0.2L 18 32.2a 0.2,0.2 0 0 1 0.2,-0.2L 18.8 32a 0.2,0.2 0 0 1 0.2,0.2L 19 32.8a 0.2,0.2 0 0 0 0.2,0.2L 19.8 33a 0.2,0.2 0 0 0 0.2,-0.2z M 22 31.2a 0.2,0.2 0 0 1 0.2,-0.2L 22.8 31a 0.2,0.2 0 0 1 0.2,0.2L 23 31.8a 0.2,0.2 0 0 1 -0.2,0.2L 22.2 32a 0.2,0.2 0 0 1 -0.2,-0.2z M 13 32.2a 0.2,0.2 0 0 1 0.2,-0.2L 13.8 32a 0.2,0.2 0 0 1 0.2,0.2L 14 32.8a 0.2,0.2 0 0 1 -0.2,0.2L 13.2 33a 0.2,0.2 0 0 1 -0.2,-0.2z M 15 32.2a 0.2,0.2 0 0 1 0.2,-0.2L 15.8 32a 0.2,0.2 0 0 1 0.2,0.2L 16 33.8a 0.2,0.2 0 0 0 0.2,0.2L 16.8 34a 0.2,0.2 0 0 1 0.2,0.2L 17 34.8a 0.2,0.2 0 0 1 -0.2,0.2L 15.2 35a 0.2,0.2 0 0 0 -0.2,0.2L 15 35.8a 0.2,0.2 0 0 1 -0.2,0.2L 14.2 36a 0.2,0.2 0 0 1 -0.2,-0.2L 14 34.2a 0.2,0.2 0 0 1 0.2,-0.2L 14.8 34a 0.2,0.2 0 0 0 0.2,-0.2z M 23 32.2a 0.2,0.2 0 0 1 0.2,-0.2L 25.8 32a 0.2,0.2 0 0 1 0.2,0.2L 26 32.8a 0.2,0.2 0 0 1 -0.2,0.2L 25.2 33a 0.2,0.2 0 0 0 -0.2,0.2L 25 33.8a 0.2,0.2 0 0 1 -0.2,0.2L 24.2 34a 0.2,0.2 0 0 1 -0.2,-0.2L 24 33.2a 0.2,0.2 0 0 0 -0.2,-0.2L 23.2 33a 0.2,0.2 0 0 1 -0.2,-0.2z M 12 33.2a 0.2,0.2 0 0 1 0.2,-0.2L 12.8 33a 0.2,0.2 0 0 1 0.2,0.2L 13 33.8a 0.2,0.2 0 0 1 -0.2,0.2L 12.2 34a 0.2,0.2 0 0 1 -0.2,-0.2z M 22 33.2a 0.2,0.2 0 0 1 0.2,-0.2L 22.8 33a 0.2,0.2 0 0 1 0.2,0.2L 23 33.8a 0.2,0.2 0 0 1 -0.2,0.2L 22.2 34a 0.2,0.2 0 0 1 -0.2,-0.2z M 8 34.2a 0.2,0.2 0 0 1 0.2,-0.2L 8.8 34a 0.2,0.2 0 0 1 0.2,0.2L 9 34.8a 0.2,0.2 0 0 0 0.2,0.2L 9.8 35a 0.2,0.2 0 0 1 0.2,0.2L 10 35.8a 0.2,0.2 0 0 1 -0.2,0.2L 9.2 36a 0.2,0.2 0 0 0 -0.2,0.2L 9 36.8a 0.2,0.2 0 0 1 -0.2,0.2L 8.2 37a 0.2,0.2 0 0 1 -0.2,-0.2z M 11 34.2a 0.2,0.2 0 0 1 0.2,-0.2L 11.8 34a 0.2,0.2 0 0 1 0.2,0.2L 12 34.8a 0.2,0.2 0 0 1 -0.2,0.2L 11.2 35a 0.2,0.2 0 0 1 -0.2,-0.2z M 23 34.2a 0.2,0.2 0 0 1 0.2,-0.2L 23.8 34a 0.2,0.2 0 0 1 0.2,0.2L 24 34.8a 0.2,0.2 0 0 1 -0.2,0.2L 23.2 35a 0.2,0.2 0 0 1 -0.2,-0.2z M 25 34.2a 0.2,0.2 0 0 1 0.2,-0.2L 25.8 34a 0.2,0.2 0 0 1 0.2,0.2L 26 34.8a 0.2,0.2 0 0 1 -0.2,0.2L 25.2 35a 0.2,0.2 0 0 1 -0.2,-0.2z M 29 34.2a 0.2,0.2 0 0 1 0.2,-0.2L 30.8 34a 0.2,0.2 0 0 1 0.2,0.2L 31 35.8a 0.2,0.2 0 0 1 -0.2,0.2L 30.2 36a 0.2,0.2 0 0 1 -0.2,-0.2L 30 35.2a 0.2,0.2 0 0 0 -0.2,-0.2L 29.2 35a 0.2,0.2 0 0 1 -0.2,-0.2z M 32 34.2a 0.2,0.2 0 0 1 0.2,-0.2L 33.8 34a 0.2,0.2 0 0 1 0.2,0.2L 34 35.8a 0.2,0.2 0 0 1 -0.2,0.2L 33.2 36a 0.2,0.2 0 0 0 -0.2,0.2L 33 36.8a 0.2,0.2 0 0 1 -0.2,0.2L 32.2 37a 0.2,0.2 0 0 1 -0.2,-0.2z M 24 35.2a 0.2,0.2 0 0 1 0.2,-0.2L 24.8 35a 0.2,0.2 0 0 1 0.2,0.2L 25 35.8a 0.2,0.2 0 0 0 0.2,0.2L 25.8 36a 0.2,0.2 0 0 1 0.2,0.2L 26 36.8a 0.2,0.2 0 0 1 -0.2,0.2L 24.2 37a 0.2,0.2 0 0 1 -0.2,-0.2z M 26 35.2a 0.2,0.2 0 0 1 0.2,-0.2L 26.8 35a 0.2,0.2 0 0 1 0.2,0.2L 27 35.8a 0.2,0.2 0 0 1 -0.2,0.2L 26.2 36a 0.2,0.2 0 0 1 -0.2,-0.2z M 11 36.2a 0.2,0.2 0 0 1 0.2,-0.2L 13.8 36a 0.2,0.2 0 0 1 0.2,0.2L 14 36.8a 0.2,0.2 0 0 1 -0.2,0.2L 11.2 37a 0.2,0.2 0 0 1 -0.2,-0.2z M 15 36.2a 0.2,0.2 0 0 1 0.2,-0.2L 15.8 36a 0.2,0.2 0 0 1 0.2,0.2L 16 36.8a 0.2,0.2 0 0 1 -0.2,0.2L 15.2 37a 0.2,0.2 0 0 1 -0.2,-0.2z M 18 36.2a 0.2,0.2 0 0 1 0.2,-0.2L 18.8 36a 0.2,0.2 0 0 1 0.2,0.2L 19 36.8a 0.2,0.2 0 0 1 -0.2,0.2L 18.2 37a 0.2,0.2 0 0 1 -0.2,-0.2z M 22 36.2a 0.2,0.2 0 0 1 0.2,-0.2L 22.8 36a 0.2,0.2 0 0 1 0.2,0.2L 23 36.8a 0.2,0.2 0 0 1 -0.2,0.2L 22.2 37a 0.2,0.2 0 0 1 -0.2,-0.2z M 28 36.2a 0.2,0.2 0 0 1 0.2,-0.2L 29.8 36a 0.2,0.2 0 0 1 0.2,0.2L 30 36.8a 0.2,0.2 0 0 1 -0.2,0.2L 28.2 37a 0.2,0.2 0 0 1 -0.2,-0.2z M 34 36.2a 0.2,0.2 0 0 1 0.2,-0.2L 34.8 36a 0.2,0.2 0 0 1 0.2,0.2L 35 36.8a 0.2,0.2 0 0 1 -0.2,0.2L 34.2 37a 0.2,0.2 0 0 1 -0.2,-0.2z M 36 36.2a 0.2,0.2 0 0 1 0.2,-0.2L 36.8 36a 0.2,0.2 0 0 1 0.2,0.2L 37 36.8a 0.2,0.2 0 0 1 -0.2,0.2L 36.2 37a 0.2,0.2 0 0 1 -0.2,-0.2z"></path><path id="qr squares" d="M1.05,0h4.9a1.05,1.05 0 0 1 1.05,1.05v4.9a1.05,1.05 0 0 1 -1.05,1.05h-4.9a1.05,1.05 0 0 1 -1.05,-1.05v-4.9a1.05,1.05 0 0 1 1.05,-1.05zM1.75,1h3.5a0.75,0.75 0 0 1 0.75,0.75v3.5a0.75,0.75 0 0 1 -0.75,0.75h-3.5a0.75,0.75 0 0 1 -0.75,-0.75v-3.5a0.75,0.75 0 0 1 0.75,-0.75zM3.5,2h0a1.5,1.5 0 0 1 1.5,1.5v0a1.5,1.5 0 0 1 -1.5,1.5h0a1.5,1.5 0 0 1 -1.5,-1.5v0a1.5,1.5 0 0 1 1.5,-1.5z M31.05,0h4.9a1.05,1.05 0 0 1 1.05,1.05v4.9a1.05,1.05 0 0 1 -1.05,1.05h-4.9a1.05,1.05 0 0 1 -1.05,-1.05v-4.9a1.05,1.05 0 0 1 1.05,-1.05zM31.75,1h3.5a0.75,0.75 0 0 1 0.75,0.75v3.5a0.75,0.75 0 0 1 -0.75,0.75h-3.5a0.75,0.75 0 0 1 -0.75,-0.75v-3.5a0.75,0.75 0 0 1 0.75,-0.75zM33.5,2h0a1.5,1.5 0 0 1 1.5,1.5v0a1.5,1.5 0 0 1 -1.5,1.5h0a1.5,1.5 0 0 1 -1.5,-1.5v0a1.5,1.5 0 0 1 1.5,-1.5z M1.05,30h4.9a1.05,1.05 0 0 1 1.05,1.05v4.9a1.05,1.05 0 0 1 -1.05,1.05h-4.9a1.05,1.05 0 0 1 -1.05,-1.05v-4.9a1.05,1.05 0 0 1 1.05,-1.05zM1.75,31h3.5a0.75,0.75 0 0 1 0.75,0.75v3.5a0.75,0.75 0 0 1 -0.75,0.75h-3.5a0.75,0.75 0 0 1 -0.75,-0.75v-3.5a0.75,0.75 0 0 1 0.75,-0.75zM3.5,32h0a1.5,1.5 0 0 1 1.5,1.5v0a1.5,1.5 0 0 1 -1.5,1.5h0a1.5,1.5 0 0 1 -1.5,-1.5v0a1.5,1.5 0 0 1 1.5,-1.5z" fill-rule="evenodd" fill-opacity="1" fill="rgb(0, 0, 0)"></path></svg>