<svg width="180" height="180" viewBox="-1 -1 27 27" xmlns="http://www.w3.org/2000/svg" xmlns:xlink="http://www.w3.org/1999/xlink" shape-rendering="geometricPrecision" id="qr code"><rect id="qr background" fill-opacity="1" fill="rgb(255, 255, 255)" x="-1" y="-1" width="27" height="27" ry="1.3499999999999999"></rect><path fill-opacity="1" fill="rgb(0, 0, 0)" id="qr dark pixels" fill-rule="evenodd" d="M 8 0.2a 0.2,0.2 0 0 1 0.2,-0.2L 8.8 0a 0.2,0.2 0 0 1 0.2,0.2L 9 0.8a 0.2,0.2 0 0 1 -0.2,0.2L 8.2 1a 0.2,0.2 0 0 1 -0.2,-0.2z M 10 0.2a 0.2,0.2 0 0 1 0.2,-0.2L 10.8 0a 0.2,0.2 0 0 1 0.2,0.2L 11 0.8a 0.2,0.2 0 0 0 0.2,0.2L 11.8 1a 0.2,0.2 0 0 0 0.2,-0.2L 12 0.2a 0.2,0.2 0 0 1 0.2,-0.2L 12.8 0a 0.2,0.2 0 0 1 0.2,0.2L 13 1.8a 0.2,0.2 0 0 1 -0.2,0.2L 11.2 2a 0.2,0.2 0 0 0 -0.2,0.2L 11 3.8a 0.2,0.2 0 0 1 -0.2,0.2L 9.2 4a 0.2,0.2 0 0 0 -0.2,0.2L 9 4.8a 0.2,0.2 0 0 1 -0.2,0.2L 8.2 5a 0.2,0.2 0 0 1 -0.2,-0.2L 8 2.2a 0.2,0.2 0 0 1 0.2,-0.2L 8.8 2a 0.2,0.2 0 0 0 0.2,-0.2L 9 1.2a 0.2,0.2 0 0 1 0.2,-0.2L 9.8 1a 0.2,0.2 0 0 0 0.2,-0.2z M 16 0.2a 0.2,0.2 0 0 1 0.2,-0.2L 16.8 0a 0.2,0.2 0 0 1 0.2,0.2L 17 0.8a 0.2,0.2 0 0 1 -0.2,0.2L 16.2 1a 0.2,0.2 0 0 1 -0.2,-0.2z M 13 2.2a 0.2,0.2 0 0 1 0.2,-0.2L 14.8 2a 0.2,0.2 0 0 1 0.2,0.2L 15 2.8a 0.2,0.2 0 0 0 0.2,0.2L 15.8 3a 0.2,0.2 0 0 1 0.2,0.2L 16 3.8a 0.2,0.2 0 0 0 0.2,0.2L 16.8 4a 0.2,0.2 0 0 1 0.2,0.2L 17 7.8a 0.2,0.2 0 0 0 0.2,0.2L 17.8 8a 0.2,0.2 0 0 1 0.2,0.2L 18 8.8a 0.2,0.2 0 0 1 -0.2,0.2L 15.2 9a 0.2,0.2 0 0 1 -0.2,-0.2L 15 8.2a 0.2,0.2 0 0 0 -0.2,-0.2L 14.2 8a 0.2,0.2 0 0 1 -0.2,-0.2L 14 5.2a 0.2,0.2 0 0 1 0.2,-0.2L 14.8 5a 0.2,0.2 0 0 1 0.2,0.2L 15 6.8a 0.2,0.2 0 0 0 0.2,0.2L 15.8 7a 0.2,0.2 0 0 0 0.2,-0.2L 16 5.2a 0.2,0.2 0 0 0 -0.2,-0.2L 15.2 5a 0.2,0.2 0 0 1 -0.2,-0.2L 15 4.2a 0.2,0.2 0 0 0 -0.2,-0.2L 13.2 4a 0.2,0.2 0 0 0 -0.2,0.2L 13 4.8a 0.2,0.2 0 0 1 -0.2,0.2L 12.2 5a 0.2,0.2 0 0 0 -0.2,0.2L 12 5.8a 0.2,0.2 0 0 1 -0.2,0.2L 11.2 6a 0.2,0.2 0 0 0 -0.2,0.2L 11 7.8a 0.2,0.2 0 0 0 0.2,0.2L 11.8 8a 0.2,0.2 0 0 0 0.2,-0.2L 12 6.2a 0.2,0.2 0 0 1 0.2,-0.2L 12.8 6a 0.2,0.2 0 0 1 0.2,0.2L 13 7.8a 0.2,0.2 0 0 0 0.2,0.2L 13.8 8a 0.2,0.2 0 0 1 0.2,0.2L 14 10.8a 0.2,0.2 0 0 1 -0.2,0.2L 11.2 11a 0.2,0.2 0 0 0 -0.2,0.2L 11 12.8a 0.2,0.2 0 0 1 -0.2,0.2L 10.2 13a 0.2,0.2 0 0 0 -0.2,0.2L 10 13.8a 0.2,0.2 0 0 1 -0.2,0.2L 9.2 14a 0.2,0.2 0 0 1 -0.2,-0.2L 9 12.2a 0.2,0.2 0 0 0 -0.2,-0.2L 8.2 12a 0.2,0.2 0 0 0 -0.2,0.2L 8 12.8a 0.2,0.2 0 0 1 -0.2,0.2L 6.2 13a 0.2,0.2 0 0 1 -0.2,-0.2L 6 12.2a 0.2,0.2 0 0 1 0.2,-0.2L 6.8 12a 0.2,0.2 0 0 0 0.2,-0.2L 7 11.2a 0.2,0.2 0 0 1 0.2,-0.2L 7.8 11a 0.2,0.2 0 0 0 0.2,-0.2L 8 10.2a 0.2,0.2 0 0 0 -0.2,-0.2L 7.2 10a 0.2,0.2 0 0 1 -0.2,-0.2L 7 9.2a 0.2,0.2 0 0 1 0.2,-0.2L 7.8 9a 0.2,0.2 0 0 0 0.2,-0.2L 8 8.2a 0.2,0.2 0 0 1 0.2,-0.2L 8.8 8a 0.2,0.2 0 0 1 0.2,0.2L 9 9.8a 0.2,0.2 0 0 0 0.2,0.2L 9.8 10a 0.2,0.2 0 0 0 0.2,-0.2L 10 5.2a 0.2,0.2 0 0 1 0.2,-0.2L 10.8 5a 0.2,0.2 0 0 0 0.2,-0.2L 11 4.2a 0.2,0.2 0 0 1 0.2,-0.2L 11.8 4a 0.2,0.2 0 0 0 0.2,-0.2L 12 3.2a 0.2,0.2 0 0 1 0.2,-0.2L 12.8 3a 0.2,0.2 0 0 0 0.2,-0.2zM 11 9.2a 0.2,0.2 0 0 1 0.2,-0.2L 11.8 9a 0.2,0.2 0 0 1 0.2,0.2L 12 9.8a 0.2,0.2 0 0 1 -0.2,0.2L 11.2 10a 0.2,0.2 0 0 1 -0.2,-0.2z M 8 6.2a 0.2,0.2 0 0 1 0.2,-0.2L 8.8 6a 0.2,0.2 0 0 1 0.2,0.2L 9 6.8a 0.2,0.2 0 0 1 -0.2,0.2L 8.2 7a 0.2,0.2 0 0 1 -0.2,-0.2z M 0 8.2a 0.2,0.2 0 0 1 0.2,-0.2L 3.8 8a 0.2,0.2 0 0 1 0.2,0.2L 4 8.8a 0.2,0.2 0 0 0 0.2,0.2L 5.8 9a 0.2,0.2 0 0 1 0.2,0.2L 6 9.8a 0.2,0.2 0 0 0 0.2,0.2L 6.8 10a 0.2,0.2 0 0 1 0.2,0.2L 7 10.8a 0.2,0.2 0 0 1 -0.2,0.2L 5.2 11a 0.2,0.2 0 0 1 -0.2,-0.2L 5 10.2a 0.2,0.2 0 0 0 -0.2,-0.2L 3.2 10a 0.2,0.2 0 0 1 -0.2,-0.2L 3 9.2a 0.2,0.2 0 0 0 -0.2,-0.2L 2.2 9a 0.2,0.2 0 0 0 -0.2,0.2L 2 9.8a 0.2,0.2 0 0 0 0.2,0.2L 2.8 10a 0.2,0.2 0 0 1 0.2,0.2L 3 12.8a 0.2,0.2 0 0 0 0.2,0.2L 3.8 13a 0.2,0.2 0 0 1 0.2,0.2L 4 13.8a 0.2,0.2 0 0 1 -0.2,0.2L 2.2 14a 0.2,0.2 0 0 1 -0.2,-0.2L 2 13.2a 0.2,0.2 0 0 0 -0.2,-0.2L 0.2 13a 0.2,0.2 0 0 1 -0.2,-0.2L 0 12.2a 0.2,0.2 0 0 1 0.2,-0.2L 0.8 12a 0.2,0.2 0 0 0 0.2,-0.2L 1 10.2a 0.2,0.2 0 0 0 -0.2,-0.2L 0.2 10a 0.2,0.2 0 0 1 -0.2,-0.2z M 6 8.2a 0.2,0.2 0 0 1 0.2,-0.2L 6.8 8a 0.2,0.2 0 0 1 0.2,0.2L 7 8.8a 0.2,0.2 0 0 1 -0.2,0.2L 6.2 9a 0.2,0.2 0 0 1 -0.2,-0.2z M 20 8.2a 0.2,0.2 0 0 1 0.2,-0.2L 22.8 8a 0.2,0.2 0 0 1 0.2,0.2L 23 9.8a 0.2,0.2 0 0 1 -0.2,0.2L 22.2 10a 0.2,0.2 0 0 0 -0.2,0.2L 22 10.8a 0.2,0.2 0 0 0 0.2,0.2L 23.8 11a 0.2,0.2 0 0 1 0.2,0.2L 24 11.8a 0.2,0.2 0 0 1 -0.2,0.2L 23.2 12a 0.2,0.2 0 0 0 -0.2,0.2L 23 12.8a 0.2,0.2 0 0 0 0.2,0.2L 23.8 13a 0.2,0.2 0 0 0 0.2,-0.2L 24 12.2a 0.2,0.2 0 0 1 0.2,-0.2L 24.8 12a 0.2,0.2 0 0 1 0.2,0.2L 25 13.8a 0.2,0.2 0 0 1 -0.2,0.2L 24.2 14a 0.2,0.2 0 0 0 -0.2,0.2L 24 14.8a 0.2,0.2 0 0 0 0.2,0.2L 24.8 15a 0.2,0.2 0 0 1 0.2,0.2L 25 19.8a 0.2,0.2 0 0 1 -0.2,0.2L 24.2 20a 0.2,0.2 0 0 1 -0.2,-0.2L 24 19.2a 0.2,0.2 0 0 0 -0.2,-0.2L 23.2 19a 0.2,0.2 0 0 1 -0.2,-0.2L 23 18.2a 0.2,0.2 0 0 1 0.2,-0.2L 23.8 18a 0.2,0.2 0 0 0 0.2,-0.2L 24 16.2a 0.2,0.2 0 0 0 -0.2,-0.2L 23.2 16a 0.2,0.2 0 0 1 -0.2,-0.2L 23 15.2a 0.2,0.2 0 0 0 -0.2,-0.2L 22.2 15a 0.2,0.2 0 0 1 -0.2,-0.2L 22 14.2a 0.2,0.2 0 0 0 -0.2,-0.2L 18.2 14a 0.2,0.2 0 0 1 -0.2,-0.2L 18 13.2a 0.2,0.2 0 0 0 -0.2,-0.2L 17.2 13a 0.2,0.2 0 0 1 -0.2,-0.2L 17 12.2a 0.2,0.2 0 0 1 0.2,-0.2L 18.8 12a 0.2,0.2 0 0 1 0.2,0.2L 19 12.8a 0.2,0.2 0 0 0 0.2,0.2L 19.8 13a 0.2,0.2 0 0 0 0.2,-0.2L 20 12.2a 0.2,0.2 0 0 1 0.2,-0.2L 20.8 12a 0.2,0.2 0 0 0 0.2,-0.2L 21 11.2a 0.2,0.2 0 0 0 -0.2,-0.2L 19.2 11a 0.2,0.2 0 0 1 -0.2,-0.2L 19 10.2a 0.2,0.2 0 0 0 -0.2,-0.2L 18.2 10a 0.2,0.2 0 0 1 -0.2,-0.2L 18 9.2a 0.2,0.2 0 0 1 0.2,-0.2L 19.8 9a 0.2,0.2 0 0 1 0.2,0.2L 20 9.8a 0.2,0.2 0 0 0 0.2,0.2L 20.8 10a 0.2,0.2 0 0 0 0.2,-0.2L 21 9.2a 0.2,0.2 0 0 0 -0.2,-0.2L 20.2 9a 0.2,0.2 0 0 1 -0.2,-0.2z M 24 8.2a 0.2,0.2 0 0 1 0.2,-0.2L 24.8 8a 0.2,0.2 0 0 1 0.2,0.2L 25 8.8a 0.2,0.2 0 0 1 -0.2,0.2L 24.2 9a 0.2,0.2 0 0 1 -0.2,-0.2z M 17 10.2a 0.2,0.2 0 0 1 0.2,-0.2L 17.8 10a 0.2,0.2 0 0 1 0.2,0.2L 18 10.8a 0.2,0.2 0 0 1 -0.2,0.2L 17.2 11a 0.2,0.2 0 0 1 -0.2,-0.2z M 4 12.2a 0.2,0.2 0 0 1 0.2,-0.2L 4.8 12a 0.2,0.2 0 0 1 0.2,0.2L 5 12.8a 0.2,0.2 0 0 1 -0.2,0.2L 4.2 13a 0.2,0.2 0 0 1 -0.2,-0.2z M 12 12.2a 0.2,0.2 0 0 1 0.2,-0.2L 12.8 12a 0.2,0.2 0 0 1 0.2,0.2L 13 13.8a 0.2,0.2 0 0 1 -0.2,0.2L 12.2 14a 0.2,0.2 0 0 0 -0.2,0.2L 12 15.8a 0.2,0.2 0 0 1 -0.2,0.2L 10.2 16a 0.2,0.2 0 0 1 -0.2,-0.2L 10 14.2a 0.2,0.2 0 0 1 0.2,-0.2L 10.8 14a 0.2,0.2 0 0 0 0.2,-0.2L 11 13.2a 0.2,0.2 0 0 1 0.2,-0.2L 11.8 13a 0.2,0.2 0 0 0 0.2,-0.2z M 14 12.2a 0.2,0.2 0 0 1 0.2,-0.2L 15.8 12a 0.2,0.2 0 0 1 0.2,0.2L 16 12.8a 0.2,0.2 0 0 0 0.2,0.2L 16.8 13a 0.2,0.2 0 0 1 0.2,0.2L 17 13.8a 0.2,0.2 0 0 1 -0.2,0.2L 14.2 14a 0.2,0.2 0 0 1 -0.2,-0.2z M 5 13.2a 0.2,0.2 0 0 1 0.2,-0.2L 5.8 13a 0.2,0.2 0 0 1 0.2,0.2L 6 13.8a 0.2,0.2 0 0 1 -0.2,0.2L 5.2 14a 0.2,0.2 0 0 1 -0.2,-0.2z M 1 14.2a 0.2,0.2 0 0 1 0.2,-0.2L 1.8 14a 0.2,0.2 0 0 1 0.2,0.2L 2 14.8a 0.2,0.2 0 0 1 -0.2,0.2L 1.2 15a 0.2,0.2 0 0 1 -0.2,-0.2z M 6 14.2a 0.2,0.2 0 0 1 0.2,-0.2L 8.8 14a 0.2,0.2 0 0 1 0.2,0.2L 9 14.8a 0.2,0.2 0 0 1 -0.2,0.2L 8.2 15a 0.2,0.2 0 0 0 -0.2,0.2L 8 15.8a 0.2,0.2 0 0 1 -0.2,0.2L 7.2 16a 0.2,0.2 0 0 1 -0.2,-0.2L 7 15.2a 0.2,0.2 0 0 0 -0.2,-0.2L 6.2 15a 0.2,0.2 0 0 1 -0.2,-0.2z M 13 14.2a 0.2,0.2 0 0 1 0.2,-0.2L 13.8 14a 0.2,0.2 0 0 1 0.2,0.2L 14 14.8a 0.2,0.2 0 0 1 -0.2,0.2L 13.2 15a 0.2,0.2 0 0 1 -0.2,-0.2z M 0 15.2a 0.2,0.2 0 0 1 0.2,-0.2L 0.8 15a 0.2,0.2 0 0 1 0.2,0.2L 1 15.8a 0.2,0.2 0 0 1 -0.2,0.2L 0.2 16a 0.2,0.2 0 0 1 -0.2,-0.2z M 2 15.2a 0.2,0.2 0 0 1 0.2,-0.2L 5.8 15a 0.2,0.2 0 0 1 0.2,0.2L 6 15.8a 0.2,0.2 0 0 1 -0.2,0.2L 5.2 16a 0.2,0.2 0 0 0 -0.2,0.2L 5 16.8a 0.2,0.2 0 0 1 -0.2,0.2L 4.2 17a 0.2,0.2 0 0 1 -0.2,-0.2L 4 16.2a 0.2,0.2 0 0 0 -0.2,-0.2L 3.2 16a 0.2,0.2 0 0 0 -0.2,0.2L 3 16.8a 0.2,0.2 0 0 1 -0.2,0.2L 2.2 17a 0.2,0.2 0 0 1 -0.2,-0.2z M 14 15.2a 0.2,0.2 0 0 1 0.2,-0.2L 15.8 15a 0.2,0.2 0 0 1 0.2,0.2L 16 15.8a 0.2,0.2 0 0 1 -0.2,0.2L 15.2 16a 0.2,0.2 0 0 0 -0.2,0.2L 15 18.8a 0.2,0.2 0 0 0 0.2,0.2L 15.8 19a 0.2,0.2 0 0 0 0.2,-0.2L 16 16.2a 0.2,0.2 0 0 1 0.2,-0.2L 16.8 16a 0.2,0.2 0 0 0 0.2,-0.2L 17 15.2a 0.2,0.2 0 0 1 0.2,-0.2L 17.8 15a 0.2,0.2 0 0 1 0.2,0.2L 18 15.8a 0.2,0.2 0 0 0 0.2,0.2L 18.8 16a 0.2,0.2 0 0 0 0.2,-0.2L 19 15.2a 0.2,0.2 0 0 1 0.2,-0.2L 20.8 15a 0.2,0.2 0 0 1 0.2,0.2L 21 15.8a 0.2,0.2 0 0 0 0.2,0.2L 22.8 16a 0.2,0.2 0 0 1 0.2,0.2L 23 17.8a 0.2,0.2 0 0 1 -0.2,0.2L 22.2 18a 0.2,0.2 0 0 0 -0.2,0.2L 22 19.8a 0.2,0.2 0 0 1 -0.2,0.2L 21.2 20a 0.2,0.2 0 0 0 -0.2,0.2L 21 21.8a 0.2,0.2 0 0 0 0.2,0.2L 21.8 22a 0.2,0.2 0 0 0 0.2,-0.2L 22 21.2a 0.2,0.2 0 0 1 0.2,-0.2L 24.8 21a 0.2,0.2 0 0 1 0.2,0.2L 25 21.8a 0.2,0.2 0 0 1 -0.2,0.2L 24.2 22a 0.2,0.2 0 0 0 -0.2,0.2L 24 22.8a 0.2,0.2 0 0 1 -0.2,0.2L 23.2 23a 0.2,0.2 0 0 0 -0.2,0.2L 23 23.8a 0.2,0.2 0 0 0 0.2,0.2L 24.8 24a 0.2,0.2 0 0 1 0.2,0.2L 25 24.8a 0.2,0.2 0 0 1 -0.2,0.2L 22.2 25a 0.2,0.2 0 0 1 -0.2,-0.2L 22 23.2a 0.2,0.2 0 0 0 -0.2,-0.2L 21.2 23a 0.2,0.2 0 0 0 -0.2,0.2L 21 24.8a 0.2,0.2 0 0 1 -0.2,0.2L 20.2 25a 0.2,0.2 0 0 1 -0.2,-0.2L 20 24.2a 0.2,0.2 0 0 0 -0.2,-0.2L 19.2 24a 0.2,0.2 0 0 1 -0.2,-0.2L 19 23.2a 0.2,0.2 0 0 0 -0.2,-0.2L 16.2 23a 0.2,0.2 0 0 1 -0.2,-0.2L 16 22.2a 0.2,0.2 0 0 1 0.2,-0.2L 16.8 22a 0.2,0.2 0 0 0 0.2,-0.2L 17 21.2a 0.2,0.2 0 0 0 -0.2,-0.2L 16.2 21a 0.2,0.2 0 0 1 -0.2,-0.2L 16 20.2a 0.2,0.2 0 0 0 -0.2,-0.2L 15.2 20a 0.2,0.2 0 0 0 -0.2,0.2L 15 20.8a 0.2,0.2 0 0 1 -0.2,0.2L 13.2 21a 0.2,0.2 0 0 1 -0.2,-0.2L 13 18.2a 0.2,0.2 0 0 1 0.2,-0.2L 13.8 18a 0.2,0.2 0 0 0 0.2,-0.2zM 17 17.2a 0.2,0.2 0 0 1 0.2,-0.2L 19.8 17a 0.2,0.2 0 0 1 0.2,0.2L 20 19.8a 0.2,0.2 0 0 1 -0.2,0.2L 17.2 20a 0.2,0.2 0 0 1 -0.2,-0.2z M 19 21.2a 0.2,0.2 0 0 1 0.2,-0.2L 19.8 21a 0.2,0.2 0 0 1 0.2,0.2L 20 21.8a 0.2,0.2 0 0 1 -0.2,0.2L 19.2 22a 0.2,0.2 0 0 1 -0.2,-0.2z M 6 16.2a 0.2,0.2 0 0 1 0.2,-0.2L 6.8 16a 0.2,0.2 0 0 1 0.2,0.2L 7 16.8a 0.2,0.2 0 0 1 -0.2,0.2L 6.2 17a 0.2,0.2 0 0 1 -0.2,-0.2z M 12 16.2a 0.2,0.2 0 0 1 0.2,-0.2L 12.8 16a 0.2,0.2 0 0 1 0.2,0.2L 13 16.8a 0.2,0.2 0 0 1 -0.2,0.2L 12.2 17a 0.2,0.2 0 0 1 -0.2,-0.2z M 8 17.2a 0.2,0.2 0 0 1 0.2,-0.2L 8.8 17a 0.2,0.2 0 0 1 0.2,0.2L 9 17.8a 0.2,0.2 0 0 1 -0.2,0.2L 8.2 18a 0.2,0.2 0 0 1 -0.2,-0.2z M 10 18.2a 0.2,0.2 0 0 1 0.2,-0.2L 10.8 18a 0.2,0.2 0 0 1 0.2,0.2L 11 18.8a 0.2,0.2 0 0 0 0.2,0.2L 11.8 19a 0.2,0.2 0 0 1 0.2,0.2L 12 19.8a 0.2,0.2 0 0 1 -0.2,0.2L 11.2 20a 0.2,0.2 0 0 0 -0.2,0.2L 11 21.8a 0.2,0.2 0 0 1 -0.2,0.2L 10.2 22a 0.2,0.2 0 0 1 -0.2,-0.2L 10 21.2a 0.2,0.2 0 0 0 -0.2,-0.2L 9.2 21a 0.2,0.2 0 0 1 -0.2,-0.2L 9 20.2a 0.2,0.2 0 0 1 0.2,-0.2L 9.8 20a 0.2,0.2 0 0 0 0.2,-0.2z M 18 18.2a 0.2,0.2 0 0 1 0.2,-0.2L 18.8 18a 0.2,0.2 0 0 1 0.2,0.2L 19 18.8a 0.2,0.2 0 0 1 -0.2,0.2L 18.2 19a 0.2,0.2 0 0 1 -0.2,-0.2z M 8 21.2a 0.2,0.2 0 0 1 0.2,-0.2L 8.8 21a 0.2,0.2 0 0 1 0.2,0.2L 9 23.8a 0.2,0.2 0 0 0 0.2,0.2L 9.8 24a 0.2,0.2 0 0 0 0.2,-0.2L 10 23.2a 0.2,0.2 0 0 1 0.2,-0.2L 13.8 23a 0.2,0.2 0 0 0 0.2,-0.2L 14 22.2a 0.2,0.2 0 0 1 0.2,-0.2L 14.8 22a 0.2,0.2 0 0 1 0.2,0.2L 15 22.8a 0.2,0.2 0 0 0 0.2,0.2L 15.8 23a 0.2,0.2 0 0 1 0.2,0.2L 16 23.8a 0.2,0.2 0 0 1 -0.2,0.2L 12.2 24a 0.2,0.2 0 0 0 -0.2,0.2L 12 24.8a 0.2,0.2 0 0 1 -0.2,0.2L 8.2 25a 0.2,0.2 0 0 1 -0.2,-0.2z M 17 24.2a 0.2,0.2 0 0 1 0.2,-0.2L 18.8 24a 0.2,0.2 0 0 1 0.2,0.2L 19 24.8a 0.2,0.2 0 0 1 -0.2,0.2L 17.2 25a 0.2,0.2 0 0 1 -0.2,-0.2z"></path><path id="qr squares" d="M1.05,0h4.9a1.05,1.05 0 0 1 1.05,1.05v4.9a1.05,1.05 0 0 1 -1.05,1.05h-4.9a1.05,1.05 0 0 1 -1.05,-1.05v-4.9a1.05,1.05 0 0 1 1.05,-1.05zM1.75,1h3.5a0.75,0.75 0 0 1 0.75,0.75v3.5a0.75,0.75 0 0 1 -0.75,0.75h-3.5a0.75,0.75 0 0 1 -0.75,-0.75v-3.5a0.75,0.75 0 0 1 0.75,-0.75zM3.5,2h0a1.5,1.5 0 0 1 1.5,1.5v0a1.5,1.5 0 0 1 -1.5,1.5h0a1.5,1.5 0 0 1 -1.5,-1.5v0a1.5,1.5 0 0 1 1.5,-1.5z M19.05,0h4.9a1.05,1.05 0 0 1 1.05,1.05v4.9a1.05,1.05 0 0 1 -1.05,1.05h-4.9a1.05,1.05 0 0 1 -1.05,-1.05v-4.9a1.05,1.05 0 0 1 1.05,-1.05zM19.75,1h3.5a0.75,0.75 0 0 1 0.75,0.75v3.5a0.75,0.75 0 0 1 -0.75,0.75h-3.5a0.75,0.75 0 0 1 -0.75,-0.75v-3.5a0.75,0.75 0 0 1 0.75,-0.75zM21.5,2h0a1.5,1.5 0 0 1 1.5,1.5v0a1.5,1.5 0 0 1 -1.5,1.5h0a1.5,1.5 0 0 1 -1.5,-1.5v0a1.5,1.5 0 0 1 1.5,-1.5z M1.05,18h4.9a1.05,1.05 0 0 1 1.05,1.05v4.9a1.05,1.05 0 0 1 -1.05,1.05h-4.9a1.05,1.05 0 0 1 -1.05,-1.05v-4.9a1.05,1.05 0 0 1 1.05,-1.05zM1.75,19h3.5a0.75,0.75 0 0 1 0.75,0.75v3.5a0.75,0.75 0 0 1 -0.75,0.75h-3.5a0.75,0.75 0 0 1 -0.75,-0.75v-3.5a0.75,0.75 0 0 1 0.75,-0.75zM3.5,20h0a1.5,1.5 0 0 1 1.5,1.5v0a1.5,1.5 0 0 1 -1.5,1.5h0a1.5,1.5 0 0 1 -1.5,-1.5v0a1.5,1.5 0 0 1 1.5,-1.5z" fill-rule="evenodd" fill-opacity="1" fill="rgb(0, 0, 0)"></path></svg>