<svg width="180" height="180" viewBox="-1 -1 23 23" xmlns="http://www.w3.org/2000/svg" xmlns:xlink="http://www.w3.org/1999/xlink" shape-rendering="geometricPrecision" id="qr code"><rect id="qr background" fill-opacity="1" fill="rgb(255, 255, 255)" x="-1" y="-1" width="23" height="23" ry="1.3499999999999999"></rect><path fill-opacity="1" fill="rgb(0, 0, 0)" id="qr dark pixels" fill-rule="evenodd" d="M 10 0.2a 0.2,0.2 0 0 1 0.2,-0.2L 10.8 0a 0.2,0.2 0 0 1 0.2,0.2L 11 1.8a 0.2,0.2 0 0 0 0.2,0.2L 11.8 2a 0.2,0.2 0 0 0 0.2,-0.2L 12 0.2a 0.2,0.2 0 0 1 0.2,-0.2L 12.8 0a 0.2,0.2 0 0 1 0.2,0.2L 13 3.8a 0.2,0.2 0 0 1 -0.2,0.2L 12.2 4a 0.2,0.2 0 0 1 -0.2,-0.2L 12 3.2a 0.2,0.2 0 0 0 -0.2,-0.2L 10.2 3a 0.2,0.2 0 0 1 -0.2,-0.2L 10 2.2a 0.2,0.2 0 0 0 -0.2,-0.2L 8.2 2a 0.2,0.2 0 0 1 -0.2,-0.2L 8 1.2a 0.2,0.2 0 0 1 0.2,-0.2L 9.8 1a 0.2,0.2 0 0 0 0.2,-0.2z M 8 3.2a 0.2,0.2 0 0 1 0.2,-0.2L 9.8 3a 0.2,0.2 0 0 1 0.2,0.2L 10 4.8a 0.2,0.2 0 0 1 -0.2,0.2L 9.2 5a 0.2,0.2 0 0 1 -0.2,-0.2L 9 4.2a 0.2,0.2 0 0 0 -0.2,-0.2L 8.2 4a 0.2,0.2 0 0 1 -0.2,-0.2z M 11 4.2a 0.2,0.2 0 0 1 0.2,-0.2L 11.8 4a 0.2,0.2 0 0 1 0.2,0.2L 12 4.8a 0.2,0.2 0 0 1 -0.2,0.2L 11.2 5a 0.2,0.2 0 0 1 -0.2,-0.2z M 8 5.2a 0.2,0.2 0 0 1 0.2,-0.2L 8.8 5a 0.2,0.2 0 0 1 0.2,0.2L 9 6.8a 0.2,0.2 0 0 1 -0.2,0.2L 8.2 7a 0.2,0.2 0 0 1 -0.2,-0.2z M 12 5.2a 0.2,0.2 0 0 1 0.2,-0.2L 12.8 5a 0.2,0.2 0 0 1 0.2,0.2L 13 7.8a 0.2,0.2 0 0 0 0.2,0.2L 13.8 8a 0.2,0.2 0 0 1 0.2,0.2L 14 8.8a 0.2,0.2 0 0 1 -0.2,0.2L 12.2 9a 0.2,0.2 0 0 1 -0.2,-0.2L 12 8.2a 0.2,0.2 0 0 0 -0.2,-0.2L 11.2 8a 0.2,0.2 0 0 1 -0.2,-0.2L 11 7.2a 0.2,0.2 0 0 1 0.2,-0.2L 11.8 7a 0.2,0.2 0 0 0 0.2,-0.2z M 10 6.2a 0.2,0.2 0 0 1 0.2,-0.2L 10.8 6a 0.2,0.2 0 0 1 0.2,0.2L 11 6.8a 0.2,0.2 0 0 1 -0.2,0.2L 10.2 7a 0.2,0.2 0 0 1 -0.2,-0.2z M 9 7.2a 0.2,0.2 0 0 1 0.2,-0.2L 9.8 7a 0.2,0.2 0 0 1 0.2,0.2L 10 7.8a 0.2,0.2 0 0 1 -0.2,0.2L 9.2 8a 0.2,0.2 0 0 1 -0.2,-0.2z M 0 8.2a 0.2,0.2 0 0 1 0.2,-0.2L 4.8 8a 0.2,0.2 0 0 1 0.2,0.2L 5 8.8a 0.2,0.2 0 0 1 -0.2,0.2L 3.2 9a 0.2,0.2 0 0 0 -0.2,0.2L 3 9.8a 0.2,0.2 0 0 0 0.2,0.2L 3.8 10a 0.2,0.2 0 0 1 0.2,0.2L 4 10.8a 0.2,0.2 0 0 1 -0.2,0.2L 1.2 11a 0.2,0.2 0 0 1 -0.2,-0.2L 1 9.2a 0.2,0.2 0 0 0 -0.2,-0.2L 0.2 9a 0.2,0.2 0 0 1 -0.2,-0.2z M 6 8.2a 0.2,0.2 0 0 1 0.2,-0.2L 8.8 8a 0.2,0.2 0 0 1 0.2,0.2L 9 8.8a 0.2,0.2 0 0 1 -0.2,0.2L 6.2 9a 0.2,0.2 0 0 1 -0.2,-0.2z M 15 8.2a 0.2,0.2 0 0 1 0.2,-0.2L 15.8 8a 0.2,0.2 0 0 1 0.2,0.2L 16 8.8a 0.2,0.2 0 0 1 -0.2,0.2L 15.2 9a 0.2,0.2 0 0 1 -0.2,-0.2z M 17 8.2a 0.2,0.2 0 0 1 0.2,-0.2L 17.8 8a 0.2,0.2 0 0 1 0.2,0.2L 18 8.8a 0.2,0.2 0 0 0 0.2,0.2L 18.8 9a 0.2,0.2 0 0 1 0.2,0.2L 19 9.8a 0.2,0.2 0 0 0 0.2,0.2L 19.8 10a 0.2,0.2 0 0 1 0.2,0.2L 20 10.8a 0.2,0.2 0 0 1 -0.2,0.2L 19.2 11a 0.2,0.2 0 0 0 -0.2,0.2L 19 11.8a 0.2,0.2 0 0 1 -0.2,0.2L 16.2 12a 0.2,0.2 0 0 1 -0.2,-0.2L 16 11.2a 0.2,0.2 0 0 1 0.2,-0.2L 16.8 11a 0.2,0.2 0 0 0 0.2,-0.2L 17 10.2a 0.2,0.2 0 0 0 -0.2,-0.2L 16.2 10a 0.2,0.2 0 0 1 -0.2,-0.2L 16 9.2a 0.2,0.2 0 0 1 0.2,-0.2L 16.8 9a 0.2,0.2 0 0 0 0.2,-0.2z M 19 8.2a 0.2,0.2 0 0 1 0.2,-0.2L 19.8 8a 0.2,0.2 0 0 1 0.2,0.2L 20 8.8a 0.2,0.2 0 0 1 -0.2,0.2L 19.2 9a 0.2,0.2 0 0 1 -0.2,-0.2z M 5 9.2a 0.2,0.2 0 0 1 0.2,-0.2L 5.8 9a 0.2,0.2 0 0 1 0.2,0.2L 6 9.8a 0.2,0.2 0 0 0 0.2,0.2L 8.8 10a 0.2,0.2 0 0 1 0.2,0.2L 9 11.8a 0.2,0.2 0 0 0 0.2,0.2L 9.8 12a 0.2,0.2 0 0 0 0.2,-0.2L 10 11.2a 0.2,0.2 0 0 1 0.2,-0.2L 10.8 11a 0.2,0.2 0 0 1 0.2,0.2L 11 12.8a 0.2,0.2 0 0 1 -0.2,0.2L 10.2 13a 0.2,0.2 0 0 0 -0.2,0.2L 10 13.8a 0.2,0.2 0 0 1 -0.2,0.2L 9.2 14a 0.2,0.2 0 0 0 -0.2,0.2L 9 14.8a 0.2,0.2 0 0 1 -0.2,0.2L 8.2 15a 0.2,0.2 0 0 1 -0.2,-0.2L 8 13.2a 0.2,0.2 0 0 0 -0.2,-0.2L 6.2 13a 0.2,0.2 0 0 1 -0.2,-0.2L 6 12.2a 0.2,0.2 0 0 1 0.2,-0.2L 7.8 12a 0.2,0.2 0 0 0 0.2,-0.2L 8 11.2a 0.2,0.2 0 0 0 -0.2,-0.2L 6.2 11a 0.2,0.2 0 0 0 -0.2,0.2L 6 11.8a 0.2,0.2 0 0 1 -0.2,0.2L 4.2 12a 0.2,0.2 0 0 1 -0.2,-0.2L 4 11.2a 0.2,0.2 0 0 1 0.2,-0.2L 4.8 11a 0.2,0.2 0 0 0 0.2,-0.2z M 9 9.2a 0.2,0.2 0 0 1 0.2,-0.2L 9.8 9a 0.2,0.2 0 0 1 0.2,0.2L 10 9.8a 0.2,0.2 0 0 1 -0.2,0.2L 9.2 10a 0.2,0.2 0 0 1 -0.2,-0.2z M 11 9.2a 0.2,0.2 0 0 1 0.2,-0.2L 11.8 9a 0.2,0.2 0 0 1 0.2,0.2L 12 9.8a 0.2,0.2 0 0 1 -0.2,0.2L 11.2 10a 0.2,0.2 0 0 1 -0.2,-0.2z M 14 9.2a 0.2,0.2 0 0 1 0.2,-0.2L 14.8 9a 0.2,0.2 0 0 1 0.2,0.2L 15 9.8a 0.2,0.2 0 0 1 -0.2,0.2L 14.2 10a 0.2,0.2 0 0 1 -0.2,-0.2z M 20 9.2a 0.2,0.2 0 0 1 0.2,-0.2L 20.8 9a 0.2,0.2 0 0 1 0.2,0.2L 21 9.8a 0.2,0.2 0 0 1 -0.2,0.2L 20.2 10a 0.2,0.2 0 0 1 -0.2,-0.2z M 12 10.2a 0.2,0.2 0 0 1 0.2,-0.2L 13.8 10a 0.2,0.2 0 0 1 0.2,0.2L 14 10.8a 0.2,0.2 0 0 1 -0.2,0.2L 13.2 11a 0.2,0.2 0 0 0 -0.2,0.2L 13 11.8a 0.2,0.2 0 0 1 -0.2,0.2L 12.2 12a 0.2,0.2 0 0 1 -0.2,-0.2z M 15 10.2a 0.2,0.2 0 0 1 0.2,-0.2L 15.8 10a 0.2,0.2 0 0 1 0.2,0.2L 16 10.8a 0.2,0.2 0 0 1 -0.2,0.2L 15.2 11a 0.2,0.2 0 0 1 -0.2,-0.2z M 0 12.2a 0.2,0.2 0 0 1 0.2,-0.2L 0.8 12a 0.2,0.2 0 0 1 0.2,0.2L 1 12.8a 0.2,0.2 0 0 1 -0.2,0.2L 0.2 13a 0.2,0.2 0 0 1 -0.2,-0.2z M 3 12.2a 0.2,0.2 0 0 1 0.2,-0.2L 3.8 12a 0.2,0.2 0 0 1 0.2,0.2L 4 12.8a 0.2,0.2 0 0 1 -0.2,0.2L 3.2 13a 0.2,0.2 0 0 1 -0.2,-0.2z M 13 12.2a 0.2,0.2 0 0 1 0.2,-0.2L 14.8 12a 0.2,0.2 0 0 1 0.2,0.2L 15 12.8a 0.2,0.2 0 0 1 -0.2,0.2L 13.2 13a 0.2,0.2 0 0 1 -0.2,-0.2z M 19 12.2a 0.2,0.2 0 0 1 0.2,-0.2L 19.8 12a 0.2,0.2 0 0 1 0.2,0.2L 20 12.8a 0.2,0.2 0 0 0 0.2,0.2L 20.8 13a 0.2,0.2 0 0 1 0.2,0.2L 21 13.8a 0.2,0.2 0 0 1 -0.2,0.2L 20.2 14a 0.2,0.2 0 0 0 -0.2,0.2L 20 14.8a 0.2,0.2 0 0 0 0.2,0.2L 20.8 15a 0.2,0.2 0 0 1 0.2,0.2L 21 16.8a 0.2,0.2 0 0 1 -0.2,0.2L 19.2 17a 0.2,0.2 0 0 1 -0.2,-0.2L 19 16.2a 0.2,0.2 0 0 0 -0.2,-0.2L 18.2 16a 0.2,0.2 0 0 1 -0.2,-0.2L 18 14.2a 0.2,0.2 0 0 1 0.2,-0.2L 18.8 14a 0.2,0.2 0 0 0 0.2,-0.2z M 11 13.2a 0.2,0.2 0 0 1 0.2,-0.2L 11.8 13a 0.2,0.2 0 0 1 0.2,0.2L 12 13.8a 0.2,0.2 0 0 1 -0.2,0.2L 11.2 14a 0.2,0.2 0 0 1 -0.2,-0.2z M 16 13.2a 0.2,0.2 0 0 1 0.2,-0.2L 17.8 13a 0.2,0.2 0 0 1 0.2,0.2L 18 13.8a 0.2,0.2 0 0 1 -0.2,0.2L 16.2 14a 0.2,0.2 0 0 1 -0.2,-0.2z M 10 14.2a 0.2,0.2 0 0 1 0.2,-0.2L 10.8 14a 0.2,0.2 0 0 1 0.2,0.2L 11 14.8a 0.2,0.2 0 0 1 -0.2,0.2L 10.2 15a 0.2,0.2 0 0 1 -0.2,-0.2z M 12 14.2a 0.2,0.2 0 0 1 0.2,-0.2L 15.8 14a 0.2,0.2 0 0 1 0.2,0.2L 16 14.8a 0.2,0.2 0 0 1 -0.2,0.2L 13.2 15a 0.2,0.2 0 0 0 -0.2,0.2L 13 15.8a 0.2,0.2 0 0 0 0.2,0.2L 15.8 16a 0.2,0.2 0 0 1 0.2,0.2L 16 16.8a 0.2,0.2 0 0 1 -0.2,0.2L 12.2 17a 0.2,0.2 0 0 1 -0.2,-0.2L 12 16.2a 0.2,0.2 0 0 0 -0.2,-0.2L 11.2 16a 0.2,0.2 0 0 1 -0.2,-0.2L 11 15.2a 0.2,0.2 0 0 1 0.2,-0.2L 11.8 15a 0.2,0.2 0 0 0 0.2,-0.2z M 9 15.2a 0.2,0.2 0 0 1 0.2,-0.2L 9.8 15a 0.2,0.2 0 0 1 0.2,0.2L 10 15.8a 0.2,0.2 0 0 0 0.2,0.2L 10.8 16a 0.2,0.2 0 0 1 0.2,0.2L 11 16.8a 0.2,0.2 0 0 0 0.2,0.2L 11.8 17a 0.2,0.2 0 0 1 0.2,0.2L 12 17.8a 0.2,0.2 0 0 1 -0.2,0.2L 10.2 18a 0.2,0.2 0 0 1 -0.2,-0.2L 10 17.2a 0.2,0.2 0 0 0 -0.2,-0.2L 9.2 17a 0.2,0.2 0 0 0 -0.2,0.2L 9 17.8a 0.2,0.2 0 0 0 0.2,0.2L 9.8 18a 0.2,0.2 0 0 1 0.2,0.2L 10 18.8a 0.2,0.2 0 0 1 -0.2,0.2L 9.2 19a 0.2,0.2 0 0 0 -0.2,0.2L 9 20.8a 0.2,0.2 0 0 1 -0.2,0.2L 8.2 21a 0.2,0.2 0 0 1 -0.2,-0.2L 8 16.2a 0.2,0.2 0 0 1 0.2,-0.2L 8.8 16a 0.2,0.2 0 0 0 0.2,-0.2z M 17 16.2a 0.2,0.2 0 0 1 0.2,-0.2L 17.8 16a 0.2,0.2 0 0 1 0.2,0.2L 18 16.8a 0.2,0.2 0 0 1 -0.2,0.2L 17.2 17a 0.2,0.2 0 0 1 -0.2,-0.2z M 16 17.2a 0.2,0.2 0 0 1 0.2,-0.2L 16.8 17a 0.2,0.2 0 0 1 0.2,0.2L 17 17.8a 0.2,0.2 0 0 1 -0.2,0.2L 16.2 18a 0.2,0.2 0 0 1 -0.2,-0.2z M 12 18.2a 0.2,0.2 0 0 1 0.2,-0.2L 13.8 18a 0.2,0.2 0 0 1 0.2,0.2L 14 18.8a 0.2,0.2 0 0 1 -0.2,0.2L 13.2 19a 0.2,0.2 0 0 0 -0.2,0.2L 13 19.8a 0.2,0.2 0 0 0 0.2,0.2L 14.8 20a 0.2,0.2 0 0 0 0.2,-0.2L 15 18.2a 0.2,0.2 0 0 1 0.2,-0.2L 15.8 18a 0.2,0.2 0 0 1 0.2,0.2L 16 20.8a 0.2,0.2 0 0 1 -0.2,0.2L 12.2 21a 0.2,0.2 0 0 1 -0.2,-0.2z M 18 19.2a 0.2,0.2 0 0 1 0.2,-0.2L 18.8 19a 0.2,0.2 0 0 1 0.2,0.2L 19 19.8a 0.2,0.2 0 0 1 -0.2,0.2L 18.2 20a 0.2,0.2 0 0 1 -0.2,-0.2z M 17 20.2a 0.2,0.2 0 0 1 0.2,-0.2L 17.8 20a 0.2,0.2 0 0 1 0.2,0.2L 18 20.8a 0.2,0.2 0 0 1 -0.2,0.2L 17.2 21a 0.2,0.2 0 0 1 -0.2,-0.2z M 19 20.2a 0.2,0.2 0 0 1 0.2,-0.2L 19.8 20a 0.2,0.2 0 0 1 0.2,0.2L 20 20.8a 0.2,0.2 0 0 1 -0.2,0.2L 19.2 21a 0.2,0.2 0 0 1 -0.2,-0.2z"></path><path id="qr squares" d="M1.05,0h4.9a1.05,1.05 0 0 1 1.05,1.05v4.9a1.05,1.05 0 0 1 -1.05,1.05h-4.9a1.05,1.05 0 0 1 -1.05,-1.05v-4.9a1.05,1.05 0 0 1 1.05,-1.05zM1.75,1h3.5a0.75,0.75 0 0 1 0.75,0.75v3.5a0.75,0.75 0 0 1 -0.75,0.75h-3.5a0.75,0.75 0 0 1 -0.75,-0.75v-3.5a0.75,0.75 0 0 1 0.75,-0.75zM3.5,2h0a1.5,1.5 0 0 1 1.5,1.5v0a1.5,1.5 0 0 1 -1.5,1.5h0a1.5,1.5 0 0 1 -1.5,-1.5v0a1.5,1.5 0 0 1 1.5,-1.5z M15.05,0h4.9a1.05,1.05 0 0 1 1.05,1.05v4.9a1.05,1.05 0 0 1 -1.05,1.05h-4.9a1.05,1.05 0 0 1 -1.05,-1.05v-4.9a1.05,1.05 0 0 1 1.05,-1.05zM15.75,1h3.5a0.75,0.75 0 0 1 0.75,0.75v3.5a0.75,0.75 0 0 1 -0.75,0.75h-3.5a0.75,0.75 0 0 1 -0.75,-0.75v-3.5a0.75,0.75 0 0 1 0.75,-0.75zM17.5,2h0a1.5,1.5 0 0 1 1.5,1.5v0a1.5,1.5 0 0 1 -1.5,1.5h0a1.5,1.5 0 0 1 -1.5,-1.5v0a1.5,1.5 0 0 1 1.5,-1.5z M1.05,14h4.9a1.05,1.05 0 0 1 1.05,1.05v4.9a1.05,1.05 0 0 1 -1.05,1.05h-4.9a1.05,1.05 0 0 1 -1.05,-1.05v-4.9a1.05,1.05 0 0 1 1.05,-1.05zM1.75,15h3.5a0.75,0.75 0 0 1 0.75,0.75v3.5a0.75,0.75 0 0 1 -0.75,0.75h-3.5a0.75,0.75 0 0 1 -0.75,-0.75v-3.5a0.75,0.75 0 0 1 0.75,-0.75zM3.5,16h0a1.5,1.5 0 0 1 1.5,1.5v0a1.5,1.5 0 0 1 -1.5,1.5h0a1.5,1.5 0 0 1 -1.5,-1.5v0a1.5,1.5 0 0 1 1.5,-1.5z" fill-rule="evenodd" fill-opacity="1" fill="rgb(0, 0, 0)"></path></svg>