<svg width="180" height="180" viewBox="-1 -1 27 27" xmlns="http://www.w3.org/2000/svg" xmlns:xlink="http://www.w3.org/1999/xlink" shape-rendering="geometricPrecision" id="qr code"><rect id="qr background" fill-opacity="1" fill="rgb(255, 255, 255)" x="-1" y="-1" width="27" height="27" ry="1.3499999999999999"></rect><path fill-opacity="1" fill="rgb(0, 0, 0)" id="qr dark pixels" fill-rule="evenodd" d="M 8 0.2a 0.2,0.2 0 0 1 0.2,-0.2L 8.8 0a 0.2,0.2 0 0 1 0.2,0.2L 9 1.8a 0.2,0.2 0 0 0 0.2,0.2L 9.8 2a 0.2,0.2 0 0 1 0.2,0.2L 10 2.8a 0.2,0.2 0 0 0 0.2,0.2L 10.8 3a 0.2,0.2 0 0 1 0.2,0.2L 11 6.8a 0.2,0.2 0 0 0 0.2,0.2L 11.8 7a 0.2,0.2 0 0 1 0.2,0.2L 12 7.8a 0.2,0.2 0 0 1 -0.2,0.2L 11.2 8a 0.2,0.2 0 0 0 -0.2,0.2L 11 8.8a 0.2,0.2 0 0 1 -0.2,0.2L 10.2 9a 0.2,0.2 0 0 1 -0.2,-0.2L 10 6.2a 0.2,0.2 0 0 0 -0.2,-0.2L 9.2 6a 0.2,0.2 0 0 0 -0.2,0.2L 9 6.8a 0.2,0.2 0 0 1 -0.2,0.2L 8.2 7a 0.2,0.2 0 0 1 -0.2,-0.2L 8 5.2a 0.2,0.2 0 0 1 0.2,-0.2L 8.8 5a 0.2,0.2 0 0 0 0.2,-0.2L 9 4.2a 0.2,0.2 0 0 0 -0.2,-0.2L 8.2 4a 0.2,0.2 0 0 1 -0.2,-0.2z M 13 0.2a 0.2,0.2 0 0 1 0.2,-0.2L 16.8 0a 0.2,0.2 0 0 1 0.2,0.2L 17 0.8a 0.2,0.2 0 0 1 -0.2,0.2L 14.2 1a 0.2,0.2 0 0 0 -0.2,0.2L 14 1.8a 0.2,0.2 0 0 1 -0.2,0.2L 13.2 2a 0.2,0.2 0 0 0 -0.2,0.2L 13 2.8a 0.2,0.2 0 0 0 0.2,0.2L 14.8 3a 0.2,0.2 0 0 1 0.2,0.2L 15 3.8a 0.2,0.2 0 0 0 0.2,0.2L 15.8 4a 0.2,0.2 0 0 1 0.2,0.2L 16 4.8a 0.2,0.2 0 0 1 -0.2,0.2L 14.2 5a 0.2,0.2 0 0 0 -0.2,0.2L 14 5.8a 0.2,0.2 0 0 1 -0.2,0.2L 13.2 6a 0.2,0.2 0 0 1 -0.2,-0.2L 13 5.2a 0.2,0.2 0 0 0 -0.2,-0.2L 12.2 5a 0.2,0.2 0 0 1 -0.2,-0.2L 12 2.2a 0.2,0.2 0 0 0 -0.2,-0.2L 11.2 2a 0.2,0.2 0 0 1 -0.2,-0.2L 11 1.2a 0.2,0.2 0 0 1 0.2,-0.2L 12.8 1a 0.2,0.2 0 0 0 0.2,-0.2z M 16 3.2a 0.2,0.2 0 0 1 0.2,-0.2L 16.8 3a 0.2,0.2 0 0 1 0.2,0.2L 17 3.8a 0.2,0.2 0 0 1 -0.2,0.2L 16.2 4a 0.2,0.2 0 0 1 -0.2,-0.2z M 12 6.2a 0.2,0.2 0 0 1 0.2,-0.2L 12.8 6a 0.2,0.2 0 0 1 0.2,0.2L 13 6.8a 0.2,0.2 0 0 1 -0.2,0.2L 12.2 7a 0.2,0.2 0 0 1 -0.2,-0.2z M 14 6.2a 0.2,0.2 0 0 1 0.2,-0.2L 14.8 6a 0.2,0.2 0 0 1 0.2,0.2L 15 6.8a 0.2,0.2 0 0 0 0.2,0.2L 15.8 7a 0.2,0.2 0 0 1 0.2,0.2L 16 7.8a 0.2,0.2 0 0 1 -0.2,0.2L 14.2 8a 0.2,0.2 0 0 1 -0.2,-0.2z M 16 6.2a 0.2,0.2 0 0 1 0.2,-0.2L 16.8 6a 0.2,0.2 0 0 1 0.2,0.2L 17 6.8a 0.2,0.2 0 0 1 -0.2,0.2L 16.2 7a 0.2,0.2 0 0 1 -0.2,-0.2z M 0 8.2a 0.2,0.2 0 0 1 0.2,-0.2L 1.8 8a 0.2,0.2 0 0 1 0.2,0.2L 2 8.8a 0.2,0.2 0 0 1 -0.2,0.2L 1.2 9a 0.2,0.2 0 0 0 -0.2,0.2L 1 9.8a 0.2,0.2 0 0 1 -0.2,0.2L 0.2 10a 0.2,0.2 0 0 1 -0.2,-0.2z M 4 8.2a 0.2,0.2 0 0 1 0.2,-0.2L 6.8 8a 0.2,0.2 0 0 1 0.2,0.2L 7 8.8a 0.2,0.2 0 0 1 -0.2,0.2L 6.2 9a 0.2,0.2 0 0 0 -0.2,0.2L 6 9.8a 0.2,0.2 0 0 1 -0.2,0.2L 5.2 10a 0.2,0.2 0 0 0 -0.2,0.2L 5 10.8a 0.2,0.2 0 0 0 0.2,0.2L 5.8 11a 0.2,0.2 0 0 1 0.2,0.2L 6 11.8a 0.2,0.2 0 0 1 -0.2,0.2L 5.2 12a 0.2,0.2 0 0 0 -0.2,0.2L 5 12.8a 0.2,0.2 0 0 1 -0.2,0.2L 4.2 13a 0.2,0.2 0 0 0 -0.2,0.2L 4 13.8a 0.2,0.2 0 0 1 -0.2,0.2L 3.2 14a 0.2,0.2 0 0 1 -0.2,-0.2L 3 12.2a 0.2,0.2 0 0 1 0.2,-0.2L 3.8 12a 0.2,0.2 0 0 0 0.2,-0.2L 4 11.2a 0.2,0.2 0 0 0 -0.2,-0.2L 2.2 11a 0.2,0.2 0 0 1 -0.2,-0.2L 2 10.2a 0.2,0.2 0 0 1 0.2,-0.2L 3.8 10a 0.2,0.2 0 0 0 0.2,-0.2z M 12 8.2a 0.2,0.2 0 0 1 0.2,-0.2L 12.8 8a 0.2,0.2 0 0 1 0.2,0.2L 13 8.8a 0.2,0.2 0 0 1 -0.2,0.2L 12.2 9a 0.2,0.2 0 0 1 -0.2,-0.2z M 19 8.2a 0.2,0.2 0 0 1 0.2,-0.2L 19.8 8a 0.2,0.2 0 0 1 0.2,0.2L 20 8.8a 0.2,0.2 0 0 1 -0.2,0.2L 19.2 9a 0.2,0.2 0 0 1 -0.2,-0.2z M 21 8.2a 0.2,0.2 0 0 1 0.2,-0.2L 24.8 8a 0.2,0.2 0 0 1 0.2,0.2L 25 8.8a 0.2,0.2 0 0 1 -0.2,0.2L 24.2 9a 0.2,0.2 0 0 0 -0.2,0.2L 24 9.8a 0.2,0.2 0 0 1 -0.2,0.2L 23.2 10a 0.2,0.2 0 0 1 -0.2,-0.2L 23 9.2a 0.2,0.2 0 0 0 -0.2,-0.2L 22.2 9a 0.2,0.2 0 0 0 -0.2,0.2L 22 9.8a 0.2,0.2 0 0 0 0.2,0.2L 22.8 10a 0.2,0.2 0 0 1 0.2,0.2L 23 10.8a 0.2,0.2 0 0 0 0.2,0.2L 23.8 11a 0.2,0.2 0 0 1 0.2,0.2L 24 11.8a 0.2,0.2 0 0 0 0.2,0.2L 24.8 12a 0.2,0.2 0 0 1 0.2,0.2L 25 12.8a 0.2,0.2 0 0 1 -0.2,0.2L 24.2 13a 0.2,0.2 0 0 0 -0.2,0.2L 24 13.8a 0.2,0.2 0 0 1 -0.2,0.2L 23.2 14a 0.2,0.2 0 0 1 -0.2,-0.2L 23 13.2a 0.2,0.2 0 0 0 -0.2,-0.2L 21.2 13a 0.2,0.2 0 0 1 -0.2,-0.2L 21 12.2a 0.2,0.2 0 0 1 0.2,-0.2L 21.8 12a 0.2,0.2 0 0 0 0.2,-0.2L 22 11.2a 0.2,0.2 0 0 0 -0.2,-0.2L 21.2 11a 0.2,0.2 0 0 1 -0.2,-0.2L 21 10.2a 0.2,0.2 0 0 0 -0.2,-0.2L 20.2 10a 0.2,0.2 0 0 1 -0.2,-0.2L 20 9.2a 0.2,0.2 0 0 1 0.2,-0.2L 20.8 9a 0.2,0.2 0 0 0 0.2,-0.2z M 13 9.2a 0.2,0.2 0 0 1 0.2,-0.2L 13.8 9a 0.2,0.2 0 0 1 0.2,0.2L 14 9.8a 0.2,0.2 0 0 0 0.2,0.2L 14.8 10a 0.2,0.2 0 0 0 0.2,-0.2L 15 9.2a 0.2,0.2 0 0 1 0.2,-0.2L 17.8 9a 0.2,0.2 0 0 1 0.2,0.2L 18 10.8a 0.2,0.2 0 0 0 0.2,0.2L 18.8 11a 0.2,0.2 0 0 1 0.2,0.2L 19 12.8a 0.2,0.2 0 0 1 -0.2,0.2L 18.2 13a 0.2,0.2 0 0 1 -0.2,-0.2L 18 12.2a 0.2,0.2 0 0 0 -0.2,-0.2L 15.2 12a 0.2,0.2 0 0 1 -0.2,-0.2L 15 11.2a 0.2,0.2 0 0 0 -0.2,-0.2L 13.2 11a 0.2,0.2 0 0 1 -0.2,-0.2zM 16 10.2a 0.2,0.2 0 0 1 0.2,-0.2L 16.8 10a 0.2,0.2 0 0 1 0.2,0.2L 17 10.8a 0.2,0.2 0 0 1 -0.2,0.2L 16.2 11a 0.2,0.2 0 0 1 -0.2,-0.2z M 6 10.2a 0.2,0.2 0 0 1 0.2,-0.2L 6.8 10a 0.2,0.2 0 0 1 0.2,0.2L 7 10.8a 0.2,0.2 0 0 1 -0.2,0.2L 6.2 11a 0.2,0.2 0 0 1 -0.2,-0.2z M 8 10.2a 0.2,0.2 0 0 1 0.2,-0.2L 10.8 10a 0.2,0.2 0 0 1 0.2,0.2L 11 10.8a 0.2,0.2 0 0 1 -0.2,0.2L 10.2 11a 0.2,0.2 0 0 0 -0.2,0.2L 10 11.8a 0.2,0.2 0 0 1 -0.2,0.2L 8.2 12a 0.2,0.2 0 0 1 -0.2,-0.2z M 19 10.2a 0.2,0.2 0 0 1 0.2,-0.2L 19.8 10a 0.2,0.2 0 0 1 0.2,0.2L 20 10.8a 0.2,0.2 0 0 1 -0.2,0.2L 19.2 11a 0.2,0.2 0 0 1 -0.2,-0.2z M 0 11.2a 0.2,0.2 0 0 1 0.2,-0.2L 0.8 11a 0.2,0.2 0 0 1 0.2,0.2L 1 11.8a 0.2,0.2 0 0 0 0.2,0.2L 1.8 12a 0.2,0.2 0 0 1 0.2,0.2L 2 12.8a 0.2,0.2 0 0 1 -0.2,0.2L 1.2 13a 0.2,0.2 0 0 0 -0.2,0.2L 1 13.8a 0.2,0.2 0 0 1 -0.2,0.2L 0.2 14a 0.2,0.2 0 0 1 -0.2,-0.2z M 12 11.2a 0.2,0.2 0 0 1 0.2,-0.2L 12.8 11a 0.2,0.2 0 0 1 0.2,0.2L 13 11.8a 0.2,0.2 0 0 1 -0.2,0.2L 12.2 12a 0.2,0.2 0 0 1 -0.2,-0.2z M 6 12.2a 0.2,0.2 0 0 1 0.2,-0.2L 7.8 12a 0.2,0.2 0 0 1 0.2,0.2L 8 12.8a 0.2,0.2 0 0 1 -0.2,0.2L 6.2 13a 0.2,0.2 0 0 1 -0.2,-0.2z M 11 12.2a 0.2,0.2 0 0 1 0.2,-0.2L 11.8 12a 0.2,0.2 0 0 1 0.2,0.2L 12 12.8a 0.2,0.2 0 0 1 -0.2,0.2L 11.2 13a 0.2,0.2 0 0 1 -0.2,-0.2z M 13 12.2a 0.2,0.2 0 0 1 0.2,-0.2L 14.8 12a 0.2,0.2 0 0 1 0.2,0.2L 15 12.8a 0.2,0.2 0 0 0 0.2,0.2L 16.8 13a 0.2,0.2 0 0 1 0.2,0.2L 17 13.8a 0.2,0.2 0 0 1 -0.2,0.2L 16.2 14a 0.2,0.2 0 0 0 -0.2,0.2L 16 14.8a 0.2,0.2 0 0 0 0.2,0.2L 17.8 15a 0.2,0.2 0 0 0 0.2,-0.2L 18 14.2a 0.2,0.2 0 0 1 0.2,-0.2L 19.8 14a 0.2,0.2 0 0 0 0.2,-0.2L 20 13.2a 0.2,0.2 0 0 1 0.2,-0.2L 20.8 13a 0.2,0.2 0 0 1 0.2,0.2L 21 13.8a 0.2,0.2 0 0 0 0.2,0.2L 22.8 14a 0.2,0.2 0 0 1 0.2,0.2L 23 14.8a 0.2,0.2 0 0 0 0.2,0.2L 23.8 15a 0.2,0.2 0 0 1 0.2,0.2L 24 15.8a 0.2,0.2 0 0 1 -0.2,0.2L 23.2 16a 0.2,0.2 0 0 0 -0.2,0.2L 23 16.8a 0.2,0.2 0 0 1 -0.2,0.2L 21.2 17a 0.2,0.2 0 0 0 -0.2,0.2L 21 18.8a 0.2,0.2 0 0 0 0.2,0.2L 23.8 19a 0.2,0.2 0 0 1 0.2,0.2L 24 19.8a 0.2,0.2 0 0 0 0.2,0.2L 24.8 20a 0.2,0.2 0 0 1 0.2,0.2L 25 21.8a 0.2,0.2 0 0 1 -0.2,0.2L 24.2 22a 0.2,0.2 0 0 0 -0.2,0.2L 24 23.8a 0.2,0.2 0 0 0 0.2,0.2L 24.8 24a 0.2,0.2 0 0 1 0.2,0.2L 25 24.8a 0.2,0.2 0 0 1 -0.2,0.2L 22.2 25a 0.2,0.2 0 0 1 -0.2,-0.2L 22 24.2a 0.2,0.2 0 0 0 -0.2,-0.2L 19.2 24a 0.2,0.2 0 0 1 -0.2,-0.2L 19 23.2a 0.2,0.2 0 0 1 0.2,-0.2L 20.8 23a 0.2,0.2 0 0 0 0.2,-0.2L 21 22.2a 0.2,0.2 0 0 1 0.2,-0.2L 21.8 22a 0.2,0.2 0 0 1 0.2,0.2L 22 22.8a 0.2,0.2 0 0 0 0.2,0.2L 22.8 23a 0.2,0.2 0 0 0 0.2,-0.2L 23 22.2a 0.2,0.2 0 0 0 -0.2,-0.2L 22.2 22a 0.2,0.2 0 0 1 -0.2,-0.2L 22 21.2a 0.2,0.2 0 0 0 -0.2,-0.2L 20.2 21a 0.2,0.2 0 0 0 -0.2,0.2L 20 21.8a 0.2,0.2 0 0 1 -0.2,0.2L 19.2 22a 0.2,0.2 0 0 0 -0.2,0.2L 19 22.8a 0.2,0.2 0 0 1 -0.2,0.2L 18.2 23a 0.2,0.2 0 0 1 -0.2,-0.2L 18 22.2a 0.2,0.2 0 0 0 -0.2,-0.2L 17.2 22a 0.2,0.2 0 0 1 -0.2,-0.2L 17 21.2a 0.2,0.2 0 0 0 -0.2,-0.2L 16.2 21a 0.2,0.2 0 0 1 -0.2,-0.2L 16 18.2a 0.2,0.2 0 0 0 -0.2,-0.2L 13.2 18a 0.2,0.2 0 0 1 -0.2,-0.2L 13 17.2a 0.2,0.2 0 0 0 -0.2,-0.2L 12.2 17a 0.2,0.2 0 0 1 -0.2,-0.2L 12 16.2a 0.2,0.2 0 0 1 0.2,-0.2L 12.8 16a 0.2,0.2 0 0 0 0.2,-0.2L 13 15.2a 0.2,0.2 0 0 0 -0.2,-0.2L 12.2 15a 0.2,0.2 0 0 0 -0.2,0.2L 12 15.8a 0.2,0.2 0 0 1 -0.2,0.2L 11.2 16a 0.2,0.2 0 0 0 -0.2,0.2L 11 16.8a 0.2,0.2 0 0 1 -0.2,0.2L 10.2 17a 0.2,0.2 0 0 0 -0.2,0.2L 10 17.8a 0.2,0.2 0 0 0 0.2,0.2L 10.8 18a 0.2,0.2 0 0 1 0.2,0.2L 11 18.8a 0.2,0.2 0 0 1 -0.2,0.2L 10.2 19a 0.2,0.2 0 0 0 -0.2,0.2L 10 19.8a 0.2,0.2 0 0 1 -0.2,0.2L 9.2 20a 0.2,0.2 0 0 0 -0.2,0.2L 9 20.8a 0.2,0.2 0 0 1 -0.2,0.2L 8.2 21a 0.2,0.2 0 0 1 -0.2,-0.2L 8 19.2a 0.2,0.2 0 0 1 0.2,-0.2L 8.8 19a 0.2,0.2 0 0 0 0.2,-0.2L 9 18.2a 0.2,0.2 0 0 0 -0.2,-0.2L 8.2 18a 0.2,0.2 0 0 1 -0.2,-0.2L 8 17.2a 0.2,0.2 0 0 1 0.2,-0.2L 8.8 17a 0.2,0.2 0 0 0 0.2,-0.2L 9 15.2a 0.2,0.2 0 0 1 0.2,-0.2L 10.8 15a 0.2,0.2 0 0 0 0.2,-0.2L 11 14.2a 0.2,0.2 0 0 1 0.2,-0.2L 11.8 14a 0.2,0.2 0 0 0 0.2,-0.2L 12 13.2a 0.2,0.2 0 0 1 0.2,-0.2L 12.8 13a 0.2,0.2 0 0 1 0.2,0.2L 13 13.8a 0.2,0.2 0 0 0 0.2,0.2L 13.8 14a 0.2,0.2 0 0 0 0.2,-0.2L 14 13.2a 0.2,0.2 0 0 0 -0.2,-0.2L 13.2 13a 0.2,0.2 0 0 1 -0.2,-0.2zM 14 15.2a 0.2,0.2 0 0 1 0.2,-0.2L 14.8 15a 0.2,0.2 0 0 1 0.2,0.2L 15 16.8a 0.2,0.2 0 0 1 -0.2,0.2L 14.2 17a 0.2,0.2 0 0 1 -0.2,-0.2z M 21 15.2a 0.2,0.2 0 0 1 0.2,-0.2L 21.8 15a 0.2,0.2 0 0 1 0.2,0.2L 22 15.8a 0.2,0.2 0 0 1 -0.2,0.2L 21.2 16a 0.2,0.2 0 0 1 -0.2,-0.2z M 17 17.2a 0.2,0.2 0 0 1 0.2,-0.2L 19.8 17a 0.2,0.2 0 0 1 0.2,0.2L 20 19.8a 0.2,0.2 0 0 1 -0.2,0.2L 17.2 20a 0.2,0.2 0 0 1 -0.2,-0.2z M 10 13.2a 0.2,0.2 0 0 1 0.2,-0.2L 10.8 13a 0.2,0.2 0 0 1 0.2,0.2L 11 13.8a 0.2,0.2 0 0 1 -0.2,0.2L 10.2 14a 0.2,0.2 0 0 1 -0.2,-0.2z M 2 14.2a 0.2,0.2 0 0 1 0.2,-0.2L 2.8 14a 0.2,0.2 0 0 1 0.2,0.2L 3 14.8a 0.2,0.2 0 0 1 -0.2,0.2L 2.2 15a 0.2,0.2 0 0 1 -0.2,-0.2z M 5 14.2a 0.2,0.2 0 0 1 0.2,-0.2L 6.8 14a 0.2,0.2 0 0 1 0.2,0.2L 7 14.8a 0.2,0.2 0 0 1 -0.2,0.2L 5.2 15a 0.2,0.2 0 0 1 -0.2,-0.2z M 8 14.2a 0.2,0.2 0 0 1 0.2,-0.2L 8.8 14a 0.2,0.2 0 0 1 0.2,0.2L 9 14.8a 0.2,0.2 0 0 1 -0.2,0.2L 8.2 15a 0.2,0.2 0 0 1 -0.2,-0.2z M 3 15.2a 0.2,0.2 0 0 1 0.2,-0.2L 4.8 15a 0.2,0.2 0 0 1 0.2,0.2L 5 15.8a 0.2,0.2 0 0 1 -0.2,0.2L 3.2 16a 0.2,0.2 0 0 1 -0.2,-0.2z M 7 15.2a 0.2,0.2 0 0 1 0.2,-0.2L 7.8 15a 0.2,0.2 0 0 1 0.2,0.2L 8 16.8a 0.2,0.2 0 0 1 -0.2,0.2L 6.2 17a 0.2,0.2 0 0 1 -0.2,-0.2L 6 16.2a 0.2,0.2 0 0 1 0.2,-0.2L 6.8 16a 0.2,0.2 0 0 0 0.2,-0.2z M 0 16.2a 0.2,0.2 0 0 1 0.2,-0.2L 2.8 16a 0.2,0.2 0 0 1 0.2,0.2L 3 16.8a 0.2,0.2 0 0 1 -0.2,0.2L 0.2 17a 0.2,0.2 0 0 1 -0.2,-0.2z M 18 18.2a 0.2,0.2 0 0 1 0.2,-0.2L 18.8 18a 0.2,0.2 0 0 1 0.2,0.2L 19 18.8a 0.2,0.2 0 0 1 -0.2,0.2L 18.2 19a 0.2,0.2 0 0 1 -0.2,-0.2z M 12 19.2a 0.2,0.2 0 0 1 0.2,-0.2L 12.8 19a 0.2,0.2 0 0 1 0.2,0.2L 13 19.8a 0.2,0.2 0 0 1 -0.2,0.2L 12.2 20a 0.2,0.2 0 0 1 -0.2,-0.2z M 14 19.2a 0.2,0.2 0 0 1 0.2,-0.2L 14.8 19a 0.2,0.2 0 0 1 0.2,0.2L 15 20.8a 0.2,0.2 0 0 1 -0.2,0.2L 13.2 21a 0.2,0.2 0 0 1 -0.2,-0.2L 13 20.2a 0.2,0.2 0 0 1 0.2,-0.2L 13.8 20a 0.2,0.2 0 0 0 0.2,-0.2z M 11 20.2a 0.2,0.2 0 0 1 0.2,-0.2L 11.8 20a 0.2,0.2 0 0 1 0.2,0.2L 12 20.8a 0.2,0.2 0 0 1 -0.2,0.2L 11.2 21a 0.2,0.2 0 0 1 -0.2,-0.2z M 10 21.2a 0.2,0.2 0 0 1 0.2,-0.2L 10.8 21a 0.2,0.2 0 0 1 0.2,0.2L 11 21.8a 0.2,0.2 0 0 0 0.2,0.2L 11.8 22a 0.2,0.2 0 0 0 0.2,-0.2L 12 21.2a 0.2,0.2 0 0 1 0.2,-0.2L 12.8 21a 0.2,0.2 0 0 1 0.2,0.2L 13 21.8a 0.2,0.2 0 0 0 0.2,0.2L 14.8 22a 0.2,0.2 0 0 0 0.2,-0.2L 15 21.2a 0.2,0.2 0 0 1 0.2,-0.2L 15.8 21a 0.2,0.2 0 0 1 0.2,0.2L 16 21.8a 0.2,0.2 0 0 0 0.2,0.2L 16.8 22a 0.2,0.2 0 0 1 0.2,0.2L 17 22.8a 0.2,0.2 0 0 1 -0.2,0.2L 16.2 23a 0.2,0.2 0 0 0 -0.2,0.2L 16 24.8a 0.2,0.2 0 0 1 -0.2,0.2L 15.2 25a 0.2,0.2 0 0 1 -0.2,-0.2L 15 23.2a 0.2,0.2 0 0 0 -0.2,-0.2L 14.2 23a 0.2,0.2 0 0 0 -0.2,0.2L 14 24.8a 0.2,0.2 0 0 1 -0.2,0.2L 12.2 25a 0.2,0.2 0 0 1 -0.2,-0.2L 12 24.2a 0.2,0.2 0 0 1 0.2,-0.2L 12.8 24a 0.2,0.2 0 0 0 0.2,-0.2L 13 23.2a 0.2,0.2 0 0 0 -0.2,-0.2L 12.2 23a 0.2,0.2 0 0 0 -0.2,0.2L 12 23.8a 0.2,0.2 0 0 1 -0.2,0.2L 11.2 24a 0.2,0.2 0 0 0 -0.2,0.2L 11 24.8a 0.2,0.2 0 0 1 -0.2,0.2L 10.2 25a 0.2,0.2 0 0 1 -0.2,-0.2L 10 23.2a 0.2,0.2 0 0 0 -0.2,-0.2L 9.2 23a 0.2,0.2 0 0 1 -0.2,-0.2L 9 22.2a 0.2,0.2 0 0 1 0.2,-0.2L 9.8 22a 0.2,0.2 0 0 0 0.2,-0.2z M 8 23.2a 0.2,0.2 0 0 1 0.2,-0.2L 8.8 23a 0.2,0.2 0 0 1 0.2,0.2L 9 24.8a 0.2,0.2 0 0 1 -0.2,0.2L 8.2 25a 0.2,0.2 0 0 1 -0.2,-0.2z M 17 23.2a 0.2,0.2 0 0 1 0.2,-0.2L 17.8 23a 0.2,0.2 0 0 1 0.2,0.2L 18 24.8a 0.2,0.2 0 0 1 -0.2,0.2L 17.2 25a 0.2,0.2 0 0 1 -0.2,-0.2z"></path><path id="qr squares" d="M1.05,0h4.9a1.05,1.05 0 0 1 1.05,1.05v4.9a1.05,1.05 0 0 1 -1.05,1.05h-4.9a1.05,1.05 0 0 1 -1.05,-1.05v-4.9a1.05,1.05 0 0 1 1.05,-1.05zM1.75,1h3.5a0.75,0.75 0 0 1 0.75,0.75v3.5a0.75,0.75 0 0 1 -0.75,0.75h-3.5a0.75,0.75 0 0 1 -0.75,-0.75v-3.5a0.75,0.75 0 0 1 0.75,-0.75zM3.5,2h0a1.5,1.5 0 0 1 1.5,1.5v0a1.5,1.5 0 0 1 -1.5,1.5h0a1.5,1.5 0 0 1 -1.5,-1.5v0a1.5,1.5 0 0 1 1.5,-1.5z M19.05,0h4.9a1.05,1.05 0 0 1 1.05,1.05v4.9a1.05,1.05 0 0 1 -1.05,1.05h-4.9a1.05,1.05 0 0 1 -1.05,-1.05v-4.9a1.05,1.05 0 0 1 1.05,-1.05zM19.75,1h3.5a0.75,0.75 0 0 1 0.75,0.75v3.5a0.75,0.75 0 0 1 -0.75,0.75h-3.5a0.75,0.75 0 0 1 -0.75,-0.75v-3.5a0.75,0.75 0 0 1 0.75,-0.75zM21.5,2h0a1.5,1.5 0 0 1 1.5,1.5v0a1.5,1.5 0 0 1 -1.5,1.5h0a1.5,1.5 0 0 1 -1.5,-1.5v0a1.5,1.5 0 0 1 1.5,-1.5z M1.05,18h4.9a1.05,1.05 0 0 1 1.05,1.05v4.9a1.05,1.05 0 0 1 -1.05,1.05h-4.9a1.05,1.05 0 0 1 -1.05,-1.05v-4.9a1.05,1.05 0 0 1 1.05,-1.05zM1.75,19h3.5a0.75,0.75 0 0 1 0.75,0.75v3.5a0.75,0.75 0 0 1 -0.75,0.75h-3.5a0.75,0.75 0 0 1 -0.75,-0.75v-3.5a0.75,0.75 0 0 1 0.75,-0.75zM3.5,20h0a1.5,1.5 0 0 1 1.5,1.5v0a1.5,1.5 0 0 1 -1.5,1.5h0a1.5,1.5 0 0 1 -1.5,-1.5v0a1.5,1.5 0 0 1 1.5,-1.5z" fill-rule="evenodd" fill-opacity="1" fill="rgb(0, 0, 0)"></path></svg>